<mxfile host="app.diagrams.net" modified="2022-04-23T12:55:55.673Z" agent="5.0 (Windows NT 10.0; Win64; x64) AppleWebKit/537.36 (KHTML, like Gecko) Chrome/100.0.4896.127 Safari/537.36" etag="YNdi9XK_8cRmFRuMxVL9" version="17.4.6" type="github">
  <diagram id="ZfrNAUDLLngBR2OwpgeA" name="第 1 页">
    <mxGraphModel dx="1043" dy="581" grid="1" gridSize="10" guides="1" tooltips="1" connect="1" arrows="1" fold="1" page="1" pageScale="1" pageWidth="827" pageHeight="1169" math="0" shadow="0">
      <root>
        <mxCell id="0" />
        <mxCell id="1" parent="0" />
        <mxCell id="puP1qySVeIb9HroSZGQV-4" value="" style="edgeStyle=orthogonalEdgeStyle;rounded=0;orthogonalLoop=1;jettySize=auto;html=1;fontSize=20;" edge="1" parent="1" source="puP1qySVeIb9HroSZGQV-1" target="puP1qySVeIb9HroSZGQV-2">
          <mxGeometry relative="1" as="geometry" />
        </mxCell>
        <mxCell id="puP1qySVeIb9HroSZGQV-1" value="&lt;b&gt;&lt;font style=&quot;font-size: 20px&quot;&gt;设置路由1&lt;/font&gt;&lt;/b&gt;" style="rounded=0;whiteSpace=wrap;html=1;" vertex="1" parent="1">
          <mxGeometry x="70" y="450" width="140" height="100" as="geometry" />
        </mxCell>
        <mxCell id="puP1qySVeIb9HroSZGQV-2" value="" style="shape=image;imageAspect=0;aspect=fixed;verticalLabelPosition=bottom;verticalAlign=top;fontSize=20;image=data:image/jpeg,/9j/4AAQSkZJRgABAQEAkACQAAD/2wBDAAMCAgMCAgMDAwMEAwMEBQgFBQQEBQoHBwYIDAoMDAsKCwsNDhIQDQ4RDgsLEBYQERMUFRUVDA8XGBYUGBIUFRT/2wBDAQMEBAUEBQkFBQkUDQsNFBQUFBQUFBQUFBQUFBQUFBQUFBQUFBQUFBQUFBQUFBQUFBQUFBQUFBQUFBQUFBQUFBT/wAARCABnAhcDASIAAhEBAxEB/8QAHwAAAQUBAQEBAQEAAAAAAAAAAAECAwQFBgcICQoL/8QAtRAAAgEDAwIEAwUFBAQAAAF9AQIDAAQRBRIhMUEGE1FhByJxFDKBkaEII0KxwRVS0fAkM2JyggkKFhcYGRolJicoKSo0NTY3ODk6Q0RFRkdISUpTVFVWV1hZWmNkZWZnaGlqc3R1dnd4eXqDhIWGh4iJipKTlJWWl5iZmqKjpKWmp6ipqrKztLW2t7i5usLDxMXGx8jJytLT1NXW19jZ2uHi4+Tl5ufo6erx8vP09fb3+Pn6/8QAHwEAAwEBAQEBAQEBAQAAAAAAAAECAwQFBgcICQoL/8QAtREAAgECBAQDBAcFBAQAAQJ3AAECAxEEBSExBhJBUQdhcRMiMoEIFEKRobHBCSMzUvAVYnLRChYkNOEl8RcYGRomJygpKjU2Nzg5OkNERUZHSElKU1RVVldYWVpjZGVmZ2hpanN0dXZ3eHl6goOEhYaHiImKkpOUlZaXmJmaoqOkpaanqKmqsrO0tba3uLm6wsPExcbHyMnK0tPU1dbX2Nna4uPk5ebn6Onq8vP09fb3+Pn6/9oADAMBAAIRAxEAPwD4cord8F+D7zxxr0emWbwwfI809zcNtigiQZeRz2AH9K6i4+GOi6lpupS+F/F8XiC+0+BrqeyksJLVnhT77xMxIfA5xwcVw1sdQoT9nUeunRtK+12lZX82i4wctjzqitPR/C+s+IllbStJvtTWL/WGztnlCfXaDioLPR9Q1LUPsFpY3N1ffMPssMLPL8oJb5QM8AHPpg11e1hdrmWm/l6k2ZTorSv/AAzrGlWMF7e6VfWdlcf6m4uLZ0jkyM/KxGDx6VNYeDdf1WO3ey0PUrxLhGkha3tJHEqqcMy4HIB4JHQ1PtqSjzOSt6hZmPRUk8EtrNJDNG0M0bFXjkUqykdQQehqOtt9UIKK19O8Ia9rEdvJYaJqN6lxvMLW9pJIJdhAfaQOdpIzjpkZrPmsbm2vGtJreWK6V/LaB0IcNnG0qec+1ZxqQk3FSV0OztcgorV1jwrrfh+GKXVNH1DTYpeI3vLV4lf6FgM1UuNLvLO1tbq4tJ4La6DNbzSRsqTBThijEYbB4OOlEakJpOMk7hZlWiti38G6/eakdOg0PUp9R8oT/ZI7SRpfLOCH2AZ2nI5xjkV03xD+DPiDwHql3EunalqOl20Mcr6oNPkjgG6NWYFuVG0sVPPUdulc8sZh41I0ZVFzSV1rutP81bv0KUZS1SOBorT0fwvrPiJZW0rSL7U1i/1hs7Z5Qn12g4rPaGRJjC0bLKG2GMjDBs4xj1rqjOMpOEXdroR0uMor1D4maToPw104eDoNNjv/ABP5UMuq6xO7E28jAP5ECg4AAIBY5JyRxXJaR4RGqaNZ35vPK+0aomm+X5edu5QfMznnGen605NQerI5lZSfU5yir2t6b/Y+s31gJfOFrO8Pmbdu7axGcZOOlbdpptrp/gK81O6hWS7vrhbay39UVfmkcfotQ5rlUu/6lN2sctRXR6R4RGqaNZ35vPK+0aomm+X5edu5QfMznnGen61la3pv9j6zfWAl84Ws7w+Zt27trEZxk46U1OLfKtxKSexRoooqygoqSC3lumKwxPKwBYrGpYgDqeO1TS6XewLI0lnPGsWN5aJgEz0zxxUuUU7NlqnOSuloVaKs2mnXd/u+zWs1xt+95MZbH1wKbb2NzeTmG3t5Z5hkmONCzDHXgUc0dddhqnN2snrsQUVua54Rv9GncC3uJ7dEV2uPIZUGVBIJ5HGcde1RSeHLhtN066tllu3uxITDFESUCMBnjOc59KxjiKUoqSlo/wDK/wCR0SweIjKUJQd47/el89WtjIopzRukhRlZXBwVI5z6Yqe6028sUV7m0nt0b7rSxsoP0yK25lor7nMoSabS23K1FWLfT7q8jeSC2mmSP77Rxlgv1I6Va1rRzo99HbCTzy8SSAhcfeAOMZNT7SPNyX1L9jUcHUt7pm0VautKvbGMSXFncW8bdGliZQfxIqrVRkpK6dzOUZQdpKzCilX7w+tewftGXWl6L4uvfCmleGNF0q1smt5VvbOB1un3QKxV2LlSuXPRR0FaW93mIv71v6/rU8eoro9I8IjVNGs783nlfaNUTTfL8vO3coPmZzzjPT9ajh8Iz3njGbQLaZHkjuJIftEg2rtQnLkc4GFJxWPtI3avsTzLUwKK6i+8I6edLvLzSdcj1T7HtM8TW7QttJxuTJO4Z+lS2vhHSY/D+manqeuyWBvvM8uGOxM2NjlTyHHt270vaRtf9GHOjkqK3F0vQzrDwHXJRp4j3LefYSWL8fL5e/6857Vra/4N0TQrOGQ+IpZpri1F3bxf2eVEitnaCd525I/Ch1Iq1+vkw5lexxtFdHpHhEapo1nfm88r7Rqiab5fl527lB8zOecZ6frWVrem/wBj6zfWAl84Ws7w+Zt27trEZxk46VSnFvlW41JPYo0UUVZQUVc0fT/7W1aysjJ5IuZ0h8zGdu5gM4zzjNbOseDxpOk6he/bfNNpqjab5flY34UnfnPHTp+tRKcYuzJ5lexzVFddD4P0mHQdL1HU9eksGv1dkiWxMoG1ipywcfyqKX4f3n/CUWejwXEM63kQuILwZEbQkFt57jgHj2qfaQu1fv8AhuLnictRXU3/AIPsjpF5f6PrSastiV+0xm3aFlVjgMuSdwz9Kbp/hGz/ALHtNS1fWF0qK8ZxbItu0zOFOGYgEbRmj2kbXDmRzFFdDP4atNK8QTafquqrbW6oHS8toTOsgIBXAyOoP4YrR1/wbomhWcMh8RSzTXFqLu3i/s8qJFbO0E7ztyR+FHtI6efkw5lexxtFdHpHhEapo1nfm88r7Rqiab5fl527lB8zOecZ6frVK5hXwt4qkjMcGpLp94VMdzGfKn2P0dQc7WxyAeh61cZRcuW4+ZPYyaK9a+LS6Zqnw38AeIbTQdL0K91M34uY9KhaONvLlRE4ZmPTPfuaqfDHStB+JFj/AMIZc6bFYeJHSWTStahdgZZQC/kTqThlIBAYYI461ryu7XVC5lZS6f0jzCinSRtFIyOpV1OCp6gim1BYUUUUAFFFFABRRRQB6J8ISVsvHzDg/wDCM3Iz9ZIga9L8N2aaHr2m6XYaTaR2EngyS/ku1tF855ZLVy7mbG4gsdu3O3pxnFeOfDbxVZeFtauxqkMs+kalZS6derb481YpAPnTPG5WVTz6VveJPGd54a0jT9L8OfEO713SlWVBafZpbf7OhXbtIcYOVdxgEgYPTivj8fg62IxM6cVpPa6dvhtuk0mraXte+jOmjJRs30d//SX+jR0WnzQeDPAPhaPXfFfiOyi1BJL6ysPDUEaCMF8bpJC6F3JHQ529OK7QwrH+1pYvDG/mTacJW81AHdzYty4HG49/evDtB+LXi3wzoq6Tp2sywWCFjHE0cbmInkmNmUsnPPykc1vfDn4lH/haun+IvFepEpDayW73RhyQot2jjG2Ncnqozj3PrXNisrxSjXrOzvCqtN3zar3VFdtdZNvUdOpH3Y+n5r/g+hq+Ddf1nxJ8PfibFrt9d6hbQ2cM2LyRnEVx54C43fdY8jAx09qXxZ4i1vQfg18M/wCy7+80+GRb0u9pI0e51n+UEqRnGTge5rh9f+KnirxRoaaRqesS3Onqwcw7ETzGHQuyqC592JrrZPjBeeGvAfgmy8M6wbfUbKG6S/hNuHVS02+M4kQqTgkgjJGT0rqqYGvCpCSpRd6l+VX5UlScdXy6Xa/l3svMSmrNX6P8Wv6+8qftEKf+FkNLIoS8m0+zluhtwfOMK7iR69K8+1DRtQ0lbdr6xubJbiMSwm4haMSoejLkcj3FGsaxe+INTudR1G5kvL64ffLPKcsx/wA/lWl4n8c674yj06PWdQe+TT4fs9sHVV8tOOPlAyeBycnjrXuYSjWwtGjQVmoq0nr0WltO/e2hnKSk2/6+Z3+s+JNV0H4D+A49N1C40/z73UGka1laNm2yJtBKkHHzE4+npWn8NfGcnxE+OGg6pd2cSalDprxF87zcXEVtJtmOR98kDj/ZFeRXniTUb/QtO0ae48zTdPeWS2h2KPLaQgudwGTkgdScdqq6bqV1o9/Be2NxJa3du4kimiYqyMOhBrgeUxlh6sGkqkvaWflNt699LX9NB+0ty26f53PV/BniDWPE3w7+Jceu393qVrFZwzj7dK0gjuPOAUjcflY8jjris34hRtL8JPhhKil4/Jvo9yjI3faPu/Wuf8UfFjxZ4z077Bq+sPc2e8SNDHFHCrsOjPsVdx/3s0zwp8UvFPgmxez0bVntbR383yXijmRX/vKHVtp9xg1nHAYmEvbxjFSU+blTfLbk5N+Xfr8Pl5le0jtdvf8ANP8AT8Tq/jxqV7ovxMzZ3c9jdx6XZwyNBI0bqfITKkg59OKl/aJ8QaqvxG1GyXUrwWL2lpm3E7+U2beMn5c4OTmvLtT1S71rULi+v7iS7vLhzJLNMxZnY9ya6W9+LXivUvDn9hXeqC603ylg2TW0LSbFxtXzSm/jA/irSnl1Sg8NKKjJ048rvpvy6rR7cuidt90L2iu10t+Vv8j1Bda0Tw78IfAIvNW8TaOk63U27w4IwsswmIJkZnUlgAoHXArhvixrtrrHxSTUo7DUNMVltWnTVbcQTuwVQ0jICR8wAbPfOaw/C3xS8UeC7F7LSNWe2s2fzPIkijmRX/vKHVgp9xisHVtXvde1K41DUbqW8vbht8s8zbmY+5qsvy+pg8Y8RKz1k076vmlzWa5Va3q/kTKSlS5PK3/B/pHf/tJQvD8bfFJcYEk6SoezK0aFSPbBrg7XXL6ztIraGfZBFcrdou1TiUDAbJHp26V1ev8AxKh8X+DbXTdc0eO71+wjjt7LXo5SkvkKR+7mXpJgZAbgj35rha99xS91apGPxK8lqWpJLnWdSZ2zPeXUuTgAF3Y+g9Sa6T4jTx2uoWehW7BrfR4Bbkr0aU/NI34scfhVPwLdWmm65DqN3c2kX2Rt8cV0ZQHbBwQY43+6cHnHam3Oj2l5cSzy+KNLeWVy7sY7vlick/6ip9m3Jdl/X9epH2rszrXXL6ztIraGfZBFcrdou1TiUDAbJHp26VWvLuW/u5rmd/MnmdpJGwBlick4HvUNPiVXkRXcRqSAXIJCj14qrJa2L0Qyiuw+J/iq38TeII105y2kafbx2dn8pXKKPvYPIyc9e2K4+sqM5VKcZzjyt9Ox0VqcaVRwhLmS6/1/TOg8Fs0ep3TKSrLZTkEdQdhreivbi4t9ks8kiNoEjsrMSCwLcn34HNcTZ30+nyO9u/lu6NGxwDlWGCOfapl1q9jACzYAtzafdX/VHJK9Pc89a462FlVqOat0PWwmPhh6Spyvu9vPl8/JnUR3VnY+E9F8651C0EhmcmwCgMwfGWJI5AxisjxVqbSa4bm2W7s5GhQM0y+VI52j5iAe+Aapab4i1HSIWitbkxxMdxRlV1z6gMDg/Sqd1dzX1w89xI00znLO5yTTo4ZwqOUtVr+Lvtb9WRXx0alCNOF01y9P5Va979fRb9TovHV9cjWniFxKIWgiym87TlBnil1HUbqx8I+Hlt7iSAMZy3lsVJw4xyPrWXJ4n1ObT/sUlz5lvsEe1o0LbR0G4jP61Tm1C4uLS2tpJN0Fvu8pcAbdxyee/PrRTw0lGnCSXuv79Gu39dwq42Ep1akJSvNW9HzRffayf+R3Cqs3xEsJXVWkktllOR1k8kkH65ArI0e+u9Q0fxCt7NLcRrbh/wB8xYLJvGDz0PWsGfVru4u4rp52+0RKqpIoClQowOlWNR8T6nq1v5F1dNJFncVVVUMfU4Az+NZLCTSitNor05XfTTr8jo/tCk3KWu8n680Utdelr9d2amoXlzp/hPQPsk0tushmdzCxXc4fAzjviruuXc1j44sLkWzXM0cULmBV+YnZzgY6j+lc5p/iPUtKtmt7W6aKFju2bQwB9RkcH6VFPrV7c30d7JcMbqMKFlXCkbRgdKpYWXM7pW971fM766fqZvHU/ZpJyv7mmllyK2mvXfZHRXDDVtM1OXT9WvZFRPNntL5c5XcOQ2SMg/Q16L4B1TxxB4Q02PS/G/gnS7BUbyrTVJ9PW4jG45DiSMvnOTyehFeQ33irVNStmt7i63QucsqoqbvrtAz+NZNdmFjOjGSl1fR/8BXODHVaeJlGUL6LW68+ivK3yfyOt+Jlxqtz4wmfWdV0vWb8pHuu9HaFrdhjgAwqEyB1wK6b9p3/AJLXr3+5a/8ApNFXlqnDA16L8WviZoXxMu5NTg8Ky6Prszxme9bVDOjokezaI/LUDopznt711u3J8/zPO+18rfl/kcRa65fWdpFbQz7IIrlbtF2qcSgYDZI9O3Sun+Gl1NqHj4Tzv5lzcR3LM2ACztG5PA9TXE1NaXk1hdRXFtK0E8TbkkjOGUjuDWE4KUWu6f4ilG6aR1mi6bo+q+EtZlfTJoL/AE23VzeG5JV3LgAbMAD8z0rSudeTRfAHhQPpWn6l5guub6Nn2Ym/hww65/SuX1nxtrfiC1+zX1+01vu3mNURAzerbQNx+tS6b4+1zSNOhsbW7jW1h3eXHJaxSbckk8spPU1i6c5avvfd9n/mRyPT1/Qx9SvRqF9LcLbQWgkOfJtlKxrxjgEk/rXTfEL/AFfhj/sC2/8A7NXO6vrF3rl4bq9dZJyApZI1jGB04UAfpSahq13qotRdS+aLWBbeL5QNsa5wvA56nk81ryv3fI0tqn/XQfa65fWdpFbQz7IIrlbtF2qcSgYDZI9O3Sq15dy393Nczv5k8ztJI2AMsTknA96hp8Sq8iK7iNSQC5BIUevFaWS1sPRDKK7D4n+KrfxN4gjXTnLaRp9vHZ2fylcoo+9g8jJz17Yrj6yozlUpxnOPK307HRWpxpVHCEuZLr/X9MltbqWyuobiFtk0LrIjYBwwOQeferd1r1/e2s9vNPvhnuTeSLtUbpSCC3A9CeOlZ9Fa2T3Oe3U9G1DUNJsfA/hL+09Ik1NmiuChS7MAX96cg4U5zS+D/EUnib4hWkpgjtYo7KW2traLJEaLE+1RnqetcJd6td31jZ2k8u+3swywJtA2Bjk8gZPPrUNneT2F1Fc20rQTxNuSSM4Kn1Brn9inGSe7v+NzL2do+Z1fg9WTwn4xZgVUWsSEkdzKMD60lrrEul6Dp1nr2ipqWky75rKQyGORAT8+x1PTP8JHWsvWvG2t+ILUW1/fNNBu3mNUSMM3q20DcfrRo/jbW9Btfs1lftHb7twidFkVT6qGBx+FHJJ3bS/rzDlf43/Cw7xr4fh8Oa4ba2eR7aSKOeITY8xVdchWx3FaPxC/1fhj/sC2/wD7NXMX+oXOqXkt1dzPcXEp3PJIckmpNQ1a71UWoupfNFrAtvF8oG2Nc4Xgc9TyeatRl7t3sWk7pvt/kPtdcvrO0itoZ9kEVyt2i7VOJQMBskenbpVa8u5b+7muZ38yeZ2kkbAGWJyTge9Q1Z02a2t9QtZby2a8tI5Vaa3WTyzKgILKHwduRkZwcZrZRVyttkemfED/AJIV8K/9/VP/AEetUv2c4JLj42eExGpOy6MjeyqjMxPtgGqvxE+I+l+LvDvhvQ9G8PSaBp+im4MaSX5u2fzmVjyUXGCD69fao/DnxKh8G+Ebqw0TR47XxDfxyW93r0kpeUQMf9XCmMR5GAW5J9uK2jNRqOoumq8/6/IycXKnyd7/ACu2cnrkyXGtahLGd0clxIykdwWJFUaKK54x5YqPY6JPmbYUUUVRIUUUUAFFFFAFz7Gnq1H2NPVq09Q0m70vy/tUXleZnb8wOcYz0PuKsaT4eudY0/VLyF4li06JZpRISGZSwX5cA5OT3xUSnGmuaTsv89C4QlUfLFXZifY09Wo+xp6tU9FWQQfY09Wo+xp6tXYXngCfTdMF1e6tpdnO1uLlbGWdvtDKRlRtCkZI6AnvXLVjTrQrJum7m1SjOlbnVrkH2NPVqPsaerVPRWxiQfY09Wo+xp6tU9FAEH2NPVqPsaerVPXR+H/At/4k8L+JtetpraOz8PxQy3STMwkcSyeWuwBSCQeuSOPWonONNc0nZafi7L8Soxc3yxWpyv2NPVqPsaerVPXofjbwhoXw90GHSr77TfeNbmKK4nCSBLfTlbDCMjGZJCvXkAbh1rS2lyL62PNfsaerUfY09Wr0nwL4R0L4h6LLo9n9psfGsMctxbF5A9tqCqCxixjKSBQcckHHNeenI4PBoa5QTuSaP4duNe1ay0ywjae+vZ0toIt6rvkdgqrk4AySOScVc8WeB9S8D+ILrRNbtmstTtdnnQeakm3cgdfmQlTlWB4Pet74Qf8AJWvBP/Ybsf8A0eldb+1h/wAl+8U/9uv/AKSQ0hnjv2NPVqPsaerVPRQBB9jT1aj7Gnq1T0UAQfY09Wo+xp6tU9FAEH2NPVqPsaerVPRQBB9jT1aj7Gnq1T0UAQfY09Wo+xp6tU9FAEH2NPVqPsaerVPRQBB9jT1aj7Gnq1T0UAQfY09Wo+xp6tU9FAEH2NPVqPsaerVPRQBB9jT1aj7Gnq1T0UAQfY09Wo+xp6tU9FAEH2NPVqPsaerVPRQBB9jT1aj7Gnq1T0UAQfY09Wo+xp6tU9FAEH2NPVqPsaerVPRQBB9jT1aj7Gnq1WFUswAGSeABVq+0m701UNzA0Qf7pOKhzjFqLerOiGHrVKcq0INxja7Sdlfa72V+lzN+xp6tR9jT1ap6Ks5yD7Gnq1H2NPVqnooAg+xp6tR9jT1ap6KAIPsaerUfY09WqeigCD7Gnq1H2NPVqnooAg+xp6tR9jT1ap6KAIPsaerUfY09WqeigCD7Gnq1FT0UAdp8I7KC+17RUuYVuI45rqYRyDKsyQqy5HfkCtvR/F+qeK/CnjN9UlW5kjskKSeUqsgMoyuQBx04PTHHeuLt/FE+lapY3elKtkLFi1uAMnng7vXI61p3nxKvbrT9RsodM0qwt9QjCTrZ2xj3EMG3Z3deO/AycDmvFxeFnVrc6in8Nn2tK7+9du2p7WDxUKNLllJrWTfneKS+5p799Dr9FuoPDfgPw9LbeIoPDVxfedNPI1i073BWQqASFOFAA4965fxT4g0e18aS6jpNrp+rWksK7457Z1gMpUb2VMqRyCfxNZ2j+OrvStLj06aw0/VrOJ2khj1G38zySfvbSCCAe46Vla5rl34i1Oa/vXDzyYztUKqgDAUAdAAAKmhgZRrznU2fNrda3d1sr6Lu9Omg62NjLDwpw3XLpZ6NLV78ur10Wt9T0P4reKI49TFn/Yeku02nwYumhczR7ox9078Dbnjg9O9eW1qeIvEVz4mvku7pIo5EhjgAhBA2ooUHknnArLrtwWH+rUIwa1tqceNxH1ms5rboerfsr/8AJwHg3/r5f/0S9X7n4/XeuaD4r8NeK7aPU9IuLd00e2t7WGNdMuFceU0ZABCAAg8kkfU5868AeNr74c+MNM8SabFbz32nuZIo7pWaIkqV+YKynox6EVhTSmeaSRgAzsWOOnJrKrg4V8Q6lRXVo27ppt6dt0TTxDo0uWDs7/hbr/ke+3njzWvg38G/hvJ4Pni0i51yO8vNSu0t45JLp0n2IrM6n5VUY29Oa6j/AIRHRLr9rLSmfSLT7Nc6QmtyaaIgIDc/YjLjZ0x5gDbfWvG/Cfxu1Xwz4bttButF0HxPpdnK09lDr1j9o+yMxy/lkMpAJ5KnIz2rMl+LniiX4jr45Oo7fESzCVZ1RQigLsCBMY2bPl2+lee8BWcqnKlFtVPevq+Z+7fr7v4W0OqOJpxhBS1S5Pd6e7bmf/b2v3u56lovxC1v40fDH4kxeMJodWOkWEWo6dO1tHG9nL5yqVjZVGFZSRt6YFaHwg+NHjW1+CvxEEXiC4T/AIR+w09NLwqf6KpuBGQvy8/LxzmvM/FXx01bxJ4dvtEtNE8P+GbHUJFkvxoNh9na8KncokYs3AbnaMDNY3w9+Jmo/DmXUha2WnarYanALe903VoDNbzqGDLuUFTkEZBBFOWXupRnF0oq8otR0srWv0sr2a/PdjWLUKkJc7dr3fWz6fLcra3421nx94stdW8R6jJqd8Xija4mCg7FPA4AGBzXQ/tEBl+NPirdnP2lSM+nlrj9MVyXi3xInirWpNRj0fTdCV1VfsekQtFbrgYyFZmOT1PNdR4w8caL4/8ADkF3qlrdW/jW0iitvtkBU29/GuFDSg8rIF7jIOOe2PoaaSoxio8tunrbtppY8mo26rbfNfqL+z6rt8ZvCewEn7Zk49NrZ/TNcVrhU61qBTBT7RJtx0xuOK7TwX440T4f+H577TbS6ufG1zHLbpdzlRbWEbZUvGBy0hXucAZ78g+fVrL7KXS/42/K34mcd5Pvb8L/AOZ6x4b+JGqfEL4r/DJdSgsoRpeo2FpD9jg8vcgnj5bk5PHbA9AKf+1h/wAl+8U/9uv/AKSQ0zw38SNS+IXxX+GS6jbWNuNL1GwtIfsUHl7kE8fLcnJ47YHoBT/2sP8Akv3in/t1/wDSSGlLWTfmOOiSPJKKKKkYUUUUAFFFFABRRRQAUUUUAFFFFABRRRQAUUUUAFFFFABRRRQAUUUUAFFFFABRRRQAUUUUAFFFFABRRRQA+CZreaOVPvxsGGfUHNa+veJ5dchiiaFYUQ7jtOcnGKxaKwlRpznGpJax2PUw+Z4zC4Wrg6NRqnVtzLTW23n92/UKKKK3PLCiiigAooooAKKKKACiiigAooooAKKKKACiiigCt9s/2P1o+2f7H61DPBJazPFKjRyIcMrDBFR0AWvtn+x+tH2z/Y/WqtFAFr7Z/sfrR9s/2P1qrRQBa+2f7H60fbP9j9aq0UAWvtn+x+tH2z/Y/WqtFAFr7Z/sfrR9s/2P1qXWtDvfDt+1lqEP2e5VVcx71bhlDKcqSOQRVCpjJTSlF3TKlGUHyyVmWvtn+x+tH2z/AGP1qrRVElr7Z/sfrR9s/wBj9aq0UAX7PWLjT7uC6tZJLa6gdZYpoZCjxupyrKw5BBAII6YqbVvEl/r2oS3+p3VxqN9LjzLm7naWV8AKMs2ScAAfQCsqigC19s/2P1o+2f7H61VooAtfbP8AY/Wj7Z/sfrVWigC19s/2P1o+2f7H61b0rwvqet6Xq2pWVt51lpUaS3kvmKvlKzbVOCQWyeOAayqALX2z/Y/Wj7Z/sfrVWigC19s/2P1o+2f7H61VpaALP2z/AGP1o+2f7H61b8TeF9T8HazNpWsW32S/hVHeHzFfAdA6nKkjlWB696yqA8y19s/2P1o+2f7H61VooAtfbP8AY/Wj7Z/sfrVWt/wf4F1rx5dz22i28NzNAnmSLNdw24C5xkGV1B57Cmk5OyE2lqzK+2f7H60fbP8AY/Wr/i7wfq/gXW5dI1u0FlqEaq7RCVJQFYBlO5GKnII6GsakMtfbP9j9aPtn+x+tVq1PE3hfU/B2szaVrFt9kv4VR3h8xXwHQOpypI5VgevejzDyKn2z/Y/Wj7Z/sfrVWigC19s/2P1o+2f7H612Xib4d2Pgnwnaz63qcieKdQijubbRbeIEQQMch7hyflLLkhACema5Wz8O6jqFlDdwW/mW810tkj71GZmGQuCc9D16e9EvdbTJ5la/Qv8Ah/TP7d8/955Hlbf4d2c59x6Vr/8ACG/9Pn/kL/69N8G2U2m3mrWlynl3EDrHImQdrAsCMjg811FedVrTU2ovQ3jFNHM/8Ib/ANPn/kL/AOvR/wAIb/0+f+Qv/r101FZe3qdx8qOZ/wCEN/6fP/IX/wBej/hDf+nz/wAhf/Xrpqmms5reCCaRNscwJjbIOcHB/Wj29TuLlicn/wAIb/0+f+Qv/r0f8Ib/ANPn/kL/AOvXTVNeWc1hcNBOmyVQCVyD1AI6exo9vU7hyx2OT/4Q3/p8/wDIX/16P+EN/wCnz/yF/wDXrpqs2Om3GpSMluqsyjJ3OqfzIo9vU7g1Fas5D/hDf+nz/wAhf/Xrkftn+x+tet31jPptw0FwnlyqASu4HqMjkV5ZZ+HdR1Cyhu4LfzLea6WyR96jMzDIXBOeh69PeuqhVc03JkS5Ukyv9s/2P1o+2f7H61e0zTbGz8TJYeI5Lmxs4pmhu5LNVlliIyMgZw2GxnnpnFafxC8AzeBb+z2XkWq6RqEAutP1OBSqXMROM4PKsDwynkGuz7KktiL62Oe+2f7H60fbP9j9aq0UDLX2z/Y/Wj7Z/sfrVWigC19s/wBj9aPtn+x+tVaKALX2z/Y/Wj7Z/sfrVWigC19s/wBj9aPtn+x+tVaKALX2z/Y/WiqtFAGvqt/LqWlWM1xtedZJYjLj5mUCMjce+NxrIrV1ZbK3sbW3s737btkkkZvKaPG4IAMH/dNZVABRRRQAUUUUAdb8KLK31L4iaJbXcEV1byTEPDMgdGGxuCDwa0ZfFOg6pp+taZfaJp+miKJjptzZW5E4lU/Kjvn5gwzkmub8G+Iv+ES8Tafq/wBn+1/ZHL+Tv2bvlIxnBx19KyZpPOmkkxjcxbHpk15tTDOriHOV0rRtZ9U23+h6VLEqjQ5Y2vd3TXSyPW/DugW+l+B9DvraHwy95qPnS3EniOVAdquVVY1YjAwOSOcmua8V3WmeDvHE8+iW+k6nZyQI3kSBLy2jdgC6ryQcMDj0Bqnpfjaw/sG00rXNCXWoLFna0kW6e3eMOcspKg7lzz6j1rB17Vl1vVJruOyttOifAS2tECRooGAPc+pPU1y0MLV9vN1r2fN6NN6db6LyVjqrYml9XhGlbmXL6ppava2r83c9I+Mni+SPxDe6Z/ZOkMslrB/pTWKG4XdEh4k6jGcD0Fcz4ssba38B+CriK3iinuIrozSogDSYmwNxHJwOBmjxF440vxRZmW98Pn+3DBHCdQjvWVCUUKGMW3HQetN0nxxYpoNppOuaCmt29jI72ji5aB495yykqDuUnnHH1qKFCph6NJRpu8HqrrX3WrrW2762Kr4inXq1HKorSjo7PTWL108mtL7nX/2Hpv8Awujw5Y/2fa/Ypba3aS28lfLcmDJJXGCSea56XxToOqafrWmX2iafpoiiY6bc2VuROJVPyo75+YMM5Jqjb/Ee4/4WFb+Krm0jleFwVtIm8tAgTYqA4OABjtXJzSedNJJjG5i2PTJq6ODm3H219Ix1T6ptv9PUmrjKcVL2NneT3W6skekXGqWXhXwF4PvItB0q+vbtbrzZr62Em5VlwARxk8gZOSAOMVg/FLR7LR/F0iafALW1uIIbpYFORHvQMVHtkms7WPE39reG9B0n7N5X9lrMPO8zPm+Y4bpjjHTqc0eMfE//AAlmrRXv2b7Lstorfy/M352IFznA646Vrh8PUp1VNrfnvr3lePXt9xlWxFOpSdNdFC2nVRSl07/eYVe2jWtM8C/BnwJq0PhXQtV1e+uNQjkudUslmBRJV4YcbjyAC2doBxjNeJV1WueOP7a8A+GPDX2Lyf7FlupPtXm7vO851bG3aNu3b6nOe1e1GXLF23/4J4zjeSvtr+T/AFPRvC+g+CfiV8ctLXS7NINCnsTfXmmsWhgjuEhZ5Igx5Ee5Rz0wTjitXxpo+i6p8P8AxFNq7fDyx1WzSObSj4TvoRM7bwHidFb94NpyCeQRXjPgXxle+APFFlrlikU01uWDQzjMcqMpV0YehUkVveI/Hvhm70O80/w/4Fs9DmvGUzXlxdveyoFOdsJdR5QJ6kZJHGauUouFl5/ff9NOvT74SfPd+X9f13O01DX9L+H/AML/AIcX9v4R8P6rqOo292bm41SyWXeqXBABHGWwcbjkgAAY5rSPw18OH9pIab/ZwHh/7F/a/wDZu87P+PXzvKz/AHd/b04rybxR45/4STwj4T0P7F9n/sGG4i+0ebu8/wA2TfnbtG3HTqc+1dFefG67b4pWPjSz02O3ktraK1ayml81JY1hETgnavDLntxnviqck5N+bt6NP9bP+mTytK3l+N1+lzsPD/jaHxn8L/ilKPD2j6HPFY2uP7Gtvs6OhuFwrKCQSMcN15Oc8Y0vCfhGz8PfDLwpqFla+BZdQ1dJrm8m8ZXEYdlWUoiQq7DCgDlhzk9a4S6+L2g2vhfxNofh/wAEx6Hb65DGksv9pPcOjJIHByycrwQFGOuSTxilovxR0hvCumaF4q8Jx+JYdKaT7BOl/JaSRI7bmjYqDvXdyOhHrQpR/Bfm7/mvUfK/xf5L/JncaH4T8Kf8NSaRpmmR6bq3h26Ila1hlS8tVZrdmeMNyGCvnGemB6VzE3j3wn4i8O+I9H1XwxpOiPBAX0S80y0ZbgTKw2xyyAkuGXOWbvk+mMbw98VE0H4r2njOPQbKCK2kLJpOn4toVXyygUEKcHBySQSTn1rhJZPMld8Y3MTisub3eVef47fd0LUfebf938L3+8ZW54Q8VP4R1Rr2PTNL1YtGYvI1ezW6iGSDuCNxu46+5ro9I8D+C77S7W4vfiRZ6bdyRq0tm+kXkhhYjlSyoVOPUcVzfizSNJ0XU1g0bX4vEVqYw5u4bWW3AbJym2QA8YBz05p602mPSSPZP2lviJKnjjXNC/4R/wAPMkltaj+0G0uM3i7reNuJvvDGcD0AAq/4T8I2fh74ZeFNQsrXwLLqGrpNc3k3jK4jDsqylESFXYYUAcsOcnrXnXjj4oaD4+sZbrUPCBj8VS28MLaxDqbiMtGqoH8gpjlVxjd70zRfijpDeFdM0LxV4Tj8Sw6U0n2CdL+S0kiR23NGxUHeu7kdCPWtFKKlLX5+WuhlyvlirbL8bLU7yz8NeE9P+LvjFdKttJ1vRoPDVzqMNssi3lrFOIVcqrgnO19wBByAeorR1O10LXtF1eA+FNEsZLrwSniM3Fla+XJFdqyr+7OfkQgcqOpJznNeU6d8U00/xR4j1ePQbK0i1bS7jTEsNPxbw2yyIEDABTuIAyc8sSTkVbh+MXkwyx/2RnzPCv8AwjOftPT5t3n/AHP/ABz/AMeqXKLhbyf/ALfb8XH+kWotST81/wC2f5SOp1HXtL+H/wAL/hxqFv4S0DVNS1C3uzc3GqWKzb1S4IAI4ycHG45IAAGOa5H48eG9N8M/ES4i0i2FlYXdtb30dqpysPmxK5QewJOK7jWvEmhaH8Jfhamv+GI/Etq1tevGn2x7WSNhcnPzqDlTkZBHYYI5z5P8QfG118QvFl7rl3DFatPtSO3h+5DGihUQfRQOe9Fa3M15v7tdPvt93mKlffy/HT9LnZftK/8AJTP+4ZY/+k6V0fw80G60vwLpd5/wjngmzN68kn9peNb2IteoGwBDE5HlqOQSMknnIrlPEnxU8PeM9OWXXPBrXPiRbFLMatb6q8KFkTZHI0OwgkYGRuAOO1Nh+LGjah4Y0bTfEfg2DXr3RoDa2V79vltx5W4sqSxqPnAJPQqcVXNFSm77tv5Nt/ft5E8r5YK2yS+5JGt8T1sfg98YtSXRtG0e9spbWGRLLUbdb22i82NHbYG64Odp9DW9+0t8RJU8ca5oX/CP+HmSS2tR/aDaXGbxd1vG3E33hjOB6AAV5b8UPHx+JXix9bNgums1vDAYEk3geXGEyDtGAcZxjjpW544+KGg+PrGW61DwgY/FUtvDC2sQ6m4jLRqqB/IKY5VcY3e9Zt+44p9Xb01LirSTfb8fd/yZ6L4T8I2fh74ZeFNQsrXwLLqGrpNc3k3jK4jDsqylESFXYYUAcsOcnrXmvxU0Pw/pPxUa28PT2dxo8zW8oWxuVuII2dVMkayAnIDbh9KdovxR0hvCumaF4q8Jx+JYdKaT7BOl/JaSRI7bmjYqDvXdyOhHrXI+KfEC+JPEFzqcOnWejxysPLs9PiEUMKgAAADvxyTyTk1rKcfaRktk7/Lt/XbfvMYy5Wn2/Hudl+0hI8nxu8V7iTtuFRc9lEaAD6YArldL8WNpekWliLfzBb6mmo7/ADMZKqBsxj26/pXX/EbxF4c+Jejr4pa+fTfGSRQwahpkkJaK+ZQE8+KQcKdoBZW9OPfzCuRwS9162/q5ppNJtHqHwyuk1/xdrV3NAu26d5zE+HCkiRsdOcetdHpMMcmlau7xq7xxIUZlBK/OOnpXCfC7UJNLvbq5iCl0KfK3QghgQfwru7nWYPsc1tZWK2azkGVvMLkgHIAz0Ga8evG1RpbaFWlfTy/MuS3UOmaPpMqWNrNNKkhdpo92QH/zzVLxJaRWequsCeXE6JIE/u7lBxWhcXVtb6JowurMXabJCB5hQj5z3HasXVNQfVL6S5dVQtgBV6KAMAfkK51e/wB4qad7+v5lWuluNQWw0PRj9lguWZJP+PhNwA3ngD+tZGqahDffZ/Js47Ty49jeX/GfU8U281H7VY2Vv5e37MrLu3Z3ZbPTHFU9bGkoudrov6s0ei67Mbe3heJkVhFOgdV3KDwDVvxdqrf2lc232W1wVT955I8zlFP3utYurah/al4Z/L8r5FTbuz0UD09qtajrFtqcbPLY4vWVVM6zHHAAztx6D1qeXa5Cg7xbXT/I1lW3jtYUNlbv/wAS0XJdk+YuCcc/z9ayPEcca3VtJFEkPn20czJGMKGI5wO1Da7uVB5H3bI2f3/cnd09+n61V1LUP7Qa2Pl+X5MCQ9c52jGaEne4QjKMrsu+LP8AkMH/AK4xf+gCvKdL8WNpekWliLfzBb6mmo7/ADMZKqBsxj26/pXqt3rNrqEO64sC135Yj89JioyBgErj6d68Kr0MLG6aa7C5bxUZLb/IuazqJ1fV72+KeWbmd5tmc7dzE4z3616T4r/ffs7+A3k+Z4tU1CKMnqEOxiB7Zrzzw7p9lq2tWlpqOpJo9jI2Jr6SJpRCoBOdq8t0xgetdZ8UPGmla1a6H4d8NxzL4b0GJ47ea5AWW6ldt0szAdNxAwOwH4D1ElGm4rrZfc0/0t8/UW815X/FNfqcDRRRUlBRRRQAUUUUAFFFFABRRRQAUUUUAFFFFABRRRQAUUUUAFFFFABRRRQAUUUUAFFFFABRRRQAUUUUAFFFFABRRRQAUUUUAFFFFABRRRQAUUUUAFFFFABRRRQAUUUUAFFFFABRRRQAUUUUAb3hfXrfRftPnpI/m7ceWAemeuSPWt3/AITqw/543P8A3yv/AMVRRWEqMJPmZXM0H/CdWH/PG5/75X/4qj/hOrD/AJ43P/fK/wDxVFFT9XgPmYf8J1Yf88bn/vlf/iqP+E6sP+eNz/3yv/xVFFH1eAczD/hOrD/njc/98r/8VR/wnVh/zxuf++V/+Kooo+rwDmYf8J1Yf88bn/vlf/iqP+E6sP8Anjc/98r/APFUUUfV4BzMP+E6sP8Anjc/98r/APFVwlFFaQpxp/CS3cKKKK1EFFFFABRRRQAUUUUAFFFFABRRRQAUUUUAf//Z;" vertex="1" parent="1">
          <mxGeometry x="240" y="450" width="519.97" height="100" as="geometry" />
        </mxCell>
        <mxCell id="puP1qySVeIb9HroSZGQV-9" style="edgeStyle=orthogonalEdgeStyle;rounded=0;orthogonalLoop=1;jettySize=auto;html=1;exitX=1;exitY=0.5;exitDx=0;exitDy=0;entryX=0;entryY=0.5;entryDx=0;entryDy=0;fontSize=20;" edge="1" parent="1" source="puP1qySVeIb9HroSZGQV-6" target="puP1qySVeIb9HroSZGQV-7">
          <mxGeometry relative="1" as="geometry" />
        </mxCell>
        <mxCell id="puP1qySVeIb9HroSZGQV-6" value="&lt;b&gt;设置路由2&lt;/b&gt;" style="rounded=0;whiteSpace=wrap;html=1;fontSize=20;" vertex="1" parent="1">
          <mxGeometry x="70" y="694.5" width="140" height="90" as="geometry" />
        </mxCell>
        <mxCell id="puP1qySVeIb9HroSZGQV-7" value="" style="shape=image;imageAspect=0;aspect=fixed;verticalLabelPosition=bottom;verticalAlign=top;fontSize=20;image=data:image/jpeg,/9j/4AAQSkZJRgABAQEAkACQAAD/2wBDAAMCAgMCAgMDAwMEAwMEBQgFBQQEBQoHBwYIDAoMDAsKCwsNDhIQDQ4RDgsLEBYQERMUFRUVDA8XGBYUGBIUFRT/2wBDAQMEBAUEBQkFBQkUDQsNFBQUFBQUFBQUFBQUFBQUFBQUFBQUFBQUFBQUFBQUFBQUFBQUFBQUFBQUFBQUFBQUFBT/wAARCADoAl8DASIAAhEBAxEB/8QAHwAAAQUBAQEBAQEAAAAAAAAAAAECAwQFBgcICQoL/8QAtRAAAgEDAwIEAwUFBAQAAAF9AQIDAAQRBRIhMUEGE1FhByJxFDKBkaEII0KxwRVS0fAkM2JyggkKFhcYGRolJicoKSo0NTY3ODk6Q0RFRkdISUpTVFVWV1hZWmNkZWZnaGlqc3R1dnd4eXqDhIWGh4iJipKTlJWWl5iZmqKjpKWmp6ipqrKztLW2t7i5usLDxMXGx8jJytLT1NXW19jZ2uHi4+Tl5ufo6erx8vP09fb3+Pn6/8QAHwEAAwEBAQEBAQEBAQAAAAAAAAECAwQFBgcICQoL/8QAtREAAgECBAQDBAcFBAQAAQJ3AAECAxEEBSExBhJBUQdhcRMiMoEIFEKRobHBCSMzUvAVYnLRChYkNOEl8RcYGRomJygpKjU2Nzg5OkNERUZHSElKU1RVVldYWVpjZGVmZ2hpanN0dXZ3eHl6goOEhYaHiImKkpOUlZaXmJmaoqOkpaanqKmqsrO0tba3uLm6wsPExcbHyMnK0tPU1dbX2Nna4uPk5ebn6Onq8vP09fb3+Pn6/9oADAMBAAIRAxEAPwD4cor1v4dm78N/D0axoFvC/ivV9cTRrS6ljV2t08sMfL3AhWZmALdgK1PiPb3eu/DXUL7XtT0zXfEGjatHZnUrBCr7HV98MhMabtrICGwRycE814Us05cR7Ll93m5b31vte1rWu7Xck99DaNPmV/X8L/5M8Qor2fw18KPCPim6stHsLnxNc393GBHri2AXTfNK7sbWUPsz8u7I57YrnPBPgPQ9Q8LeLdY8Q3d9bDQ5raPbYbGMm92Vlww5JKgA5AGSTnpWn9rYe0nrePLpZ3958q083811QvZydrf1pc87orv/ABt4J0Oz8P6B4j8N3N/Lo+qSyWzwakE8+CaMjIJQBSCGyOK7S/8AhJ4Cg+JFz4Gj1XXV1iVhHa3TrC1vFI0YdUk4DPnPVQuMgds0pZth4RUmpbSb0d1yNKV/Rv8AyD2b/rzPDKKlurZ7O6mt5RiSF2jYD1Bwair2U7q6M2mnZhRXt+q/C74e6P44g8J3Wra7FqF6kHk3QEJgtnljUqJcgFssc8YwCOvJrk/C3w70zyfFepeJb25j0nw9MtrKmlhWmuZnkZFCFvlA+UnJHSvGp5th6lP2iTtaLWj15nZW73en/A1NPZy0/rz/ACPPKK77xn4I0Wz0PQfEXh26vpdF1SaS2aDUQguLeVCMglPlYEHIIFalx8LdKi+PieBxcXh0lrtIPOLp5+0xhic7ducn+7Wv9pYfkc9dFJvTVcjSl802S4NK/p+N/wDI8tor2n9nmHw1ZfFbT7a6j1V9cjv5UspIZIhbBBGw/eAruJ4b7pHauD8Yf8IhcNFH4Yg1yO8aYiX+1ZoXQg9NuxQQc+tKGP58VLDezdkk79Nb/hpv/kU6fLFtvY5KnIjSOqIpZ2OAqjJJ9K90/wCFE6DH4gTwnI/iT+32URnV1s1OmLOU3bcY3FM/Luz17Vzf7PekRj4xWS3sKyvpiXV15TDK+bDE7L+TKD+Fb4HH4fHyapN6K+32ddV62f6kVIypxvb/AIc5Dxh4B1jwItgutRw2l3eRmUWXnK08K8YMqA5TOeAeeDxXOVa1TU7rWtSur+9me5vLmRpZZpDlnZjkk13a+MtODRn7R08MHTT+7b/XY+70/Xp711zk4q6Rm207LU86rQutDurHSbLUZgqW94XEI3fMwU4Jx6Zqvp9jLql/b2cC7pp5FiQe5OBXSfEK8huPEkemWzZsdMjSwix328O31LZocnzKK6ib1scnRXpFx4G8NJ4sn8Npe6kuoM2yCZghiViu4K3AJ+ox1/GsDwz4Z0+/0/XrrVJriBdMWNv9H2ktl9pGCOSeg5GCeahVotc3p+IudWv6fjsctRXT67oGl/2PY6polxcPBPM1tJbXhXzY5AAQcrwQQfSuj/4Vrpg1QaGTq/8AaZGz7cIB9j8zbnHTdtzxnNN1opXf9WB1IrVnmtFdP4d8N2M1jq2o6zLcRWWnlImjtNvmSSMSAAW4AGDmtPxclmngHw7/AGfJNJaNc3JT7QAJF5XIbHGQe460OouZRX9dR83vcv8AW1zlP7Dvzo51X7M/9niXyTPxjfjOPWqFdtd2Ok3XgO8u9Mn1aNLW5iV7W7nRoWZgcsFVRzx1rM8M+H7G+03UtV1WeeLT7Hy0MdqAZZXckAAtwBxyTQqmkm+j/wAv8xKel2c5RXQ6xp+gw/2deafeXE1nM5W4tJiguYQCM8j5TkZwcV1+tP4U/wCEI8OGaHWTZ+ZdeQEli8wHcu7eSuDzjGKUqtrabg56rTc8vorpfCOtWejza8ZHaOK6024toNwLEs2NoOB1469KZ4w1m21iPQRbyeYbTTIbaX5SNrqWyORz1HI4q+Z81rFXd7W/rQ52iiitCgoqW1iE91DG2QruqnHXk4rrpPC+ixXTRtPfYjvvsLY2ZLN90g46DBz6+1c1XEQotKR24fB1MSnKFrLu7f1szjKK6LT/AAzFJdat9paeS20+Ty2W1TMkjFioxnp0Jpms6HbWNvZ30Iuks5pDG8NyoWVCME4PQ5B4OKX1mm58i3/4F/yLeBrRpuo1ov0dm/v0MCiu4vm0H/hFdL3x6l9m86bywske/ORnPy4x6Yqj4dW0fw/4i85pY7PdAflAMm3ecD0yeBWSxV4OfI9Hb8bf0joeX2qRpqoneLl90XL7ul/mcrRW3rOk2cOnWeoadJM1tcM0ZjuMb0dcdxwQc1p/8IzpMeqJo0tzdjU2wpmVV8lZCMgY6kc4zmtHiqajza9enbf7jCOArSk46dNb6Pm2t6/8OcjRW5pGiW8kepXOoySpbWO1XW3xvd2YgAE8djV3XFtl8H6abNpGgN1KV84AOOBwccUSxEVNQSvrb8LhHBTdKVWTtZN26uztt63+45aiurvvD2kaT5MN4+oB5I1c3kaKYAWGeBjJHPrTPCHhvw9riXZ1rxfb+G2iZREs1hPcecDnJHlqcYwOvrWtGrGurw2MMRh54VpVLX7LVr1/qxy9dxa/CPVLjwPB4ql1PRbDT7iOeS3hvdQSG4n8okOscbcu2RgAeo9az/GHhvw9oUNs+ieL7fxNJIxEscNhPbeUABgkyqM59vSut+IH/JCvhX/v6p/6PWumy5X3OO/vRXf/ACZ5VRXReDdZttHbWzcyeX9q0ue2j+Unc7bcDgcdOp4qTxRrNtrD+HRbyeYbTToLaX5SNrqWyORz1HI4rHmfPy2FzO70/rQ5mivedZ/4S/8A4TmTf/yK3mp5v2vy/s/k7Rvzu/H8a4jSbm30XS/GGsaMESWG6jhsp2QMYonkblcjgkAc1zxxHNG9u3Xu7akKpdfcee0V23i66fXPB+gaxeBZNRkmngmuFQK0qqVK7sDkjJ5rqdS1LV4pBd6Fb2useD1hXOnQLGwVNgDLIuN4bOTmqdZpbd+vb/MfPtp/S0PIKK6zwJ4q1TS9dsLGxu5LWxub6PzIFwQQzKCCSPTinfELxRquqa5qen3d7JPZW97J5ULYwuGYDHHpWnNLnUbFXfNY5Gtzwj4Vk8Yak9lHqel6UyxGXztWvEtYjggbQzcFuenoD6V1K+MtODRn7R08MHTT+7b/AF2Pu9P16e9eeJ95frWlF887SQJuS7G3428G6h4B8TXmhap5JvrXZ5n2d96fMgcYPfhhVjxd8Pda8Ex2NxqEMUlhfJ5lpf2kqzW847hXU4yO4OCPSuu/ad/5LXr3+5a/+k0VSfDmV9a+DvxI0e6Pm2ljDbapaq3PkzCUIzL6blbBq0rxl3Wv3b/gF/hfe342/U8ooooqSwooooAKKKKACiiigAooooAKKKKACiiigAooooA9f8D6udH+Fuk6vHA92mg+LY768ii5ZIjEm1j6AlGUE8ZpfEHjDwZZeHtbstIur3V31HWrfVWjvLXyV8tTIWh6nJG7BbjO7gcV5x4X8Y614LvnvNF1CWwnddj7MFZF/uspBVh7EGq/iDxBfeKNWn1LUpUmvJtu944UiBwoUfKgCjgDoK+d/styxMpzfu3vo9d07NW6O+qku1upsppQt/XX/Nn0PbfFrQV+I1p4kf4k6wNEedX/AOEdW2uEjt0K42OFPllF/wBkMTgfWuN8BjS9U+HPxOGoXkllp1xe2J+2RxGQx5mkKsU4JGcZA5wT34rxmtOy8Sajp+h6lo9vceXp2otE11DsU+YYyWT5iMjBJ6EZ71l/YcKVPloTd709XyqyhLm0tFa773vpcr2zbu/60a/U7fxtr2gW3hPwx4T0DUpNbjsbma8udRa3aBHkkKgIiN82AByT1r0vxnd+DvC/x51HxTqevXEN/ps0cx0VLJ3eeRYV2bJR8oU/KTuwRyPevmxWKMGHBByK0PEXiLUPFmtXOrarcfatQuSDLNsVNxChRwoAHAHQVpUyjnlGKqNR5ZqT05m5uLf2bWdnsk1pYn2is012/C/+ZZ0mTTNa8XQSa9cS2Gl3V1vu5rdd7xozEsVGDnr6H6HpUXiy20ez8RX8Ph+7nv8ARkkxa3FymyR0wOSMDvnsPoKyaK9xUuWopqTta1unr3v03M3K979TufjR4k07xZ4/utS0q4+1WT29tGsuxkyyQIrDDAHhlI6dqs/DrxDof/CK+JvCuv30mkW2rG3mh1KOBp1hkiYnDovzFWDY46V57RXJ9Rp/VYYRNpR5bPS/u2ae1r3Xa3kPnfMpf1tb8j0bx14k0Oz8H+HfCvh/UJNZj064mvbjUnt2gSSSTaAqI3zYAXknrXat428Cz/EaL4kvrt0l8qrct4dFi5lNwsQTaJvubMjOeuO1eCUVyzymlOChzy+0m9LyU3eSeltWuiVulivaeWnb+vn952Xwz8ZW/hX4n6T4i1BGNtDdtLOIhkhXDAkDvjdn8Kh8XaP4f0Oe3utB8UxeIneZnaJbGa3MQBBUkuADn29K5Oiu54WPt/bxk1ok1pZpXte6b0u9mvMnmumpa3PoLXfifpHiPWJvEJ+JfijSLOdBJJ4bsDOk0cgQApHJu8oKWGckdD0rzf4QeNbXwd8TNP1jUzI+nSNLBduTvcRSoyMxPcjdu98VwtFRgMDSy/Sm21orO2y6aJX9Xd+YVJOqrM634ifDm/8Ah7qUSzSQ3ul3m6TTtStZVkiu4gR86kHg8jIPQ1yVOMjMgQsSqkkLngZ6/wAqbXokep2Pw9RdL/tTxFKo2aXbnyd3Q3D/ACxj8Mk/hXJxO0l0jMSzM4JJ6k5rQsvEl3p9qkEUNgyJnBm063lfk55Z0LHr3NT/APCYX45EGlg/9gm1/wDjVEYxUnJszs9fM9B1640DRfiZea1d6nKlzaSB/wCz1t2LSOIxt2v90A8Hn3+tcTo+uWsXh3xVBcS+XdagsJhj2k7iJdzDIGBgetQ3XjrVr64ee5Gn3E78tLNpdq7N25Jjyah/4TC//wCeGl/+Cm0/+NVhCjGMUpN3svwJUGlr5fgY8UhhlSQdVIYfhXp2peMbHVNQk1T/AIS/WbK3lXe2kWplWRG2/dV87AM9/wBK4n/hML//AJ4aX/4KbT/41R/wmF//AM8NL/8ABTaf/Gq1nThO13sVKPM7mj4X1bTptH1rR9Vu5LFL5o5o7zyzLtdCThgOTkHqKk8S6hpDeFtE0rT79rt7WeZpZHhZOGK4YA9uvGc8c46Vlf8ACYX/APzw0v8A8FNp/wDGqP8AhML/AP54aX/4KbT/AONUvZQ5ua7/AK0Fyu9zqbOHw1a+E9Q0g+KoWe6uIphL9hnwuwHjG33rK0HUNJh0/XNAvL9orS6kjeDUY4GZd0ZOCU+9hgfqKy/+Ewv/APnhpf8A4KbT/wCNUf8ACYX/APzw0v8A8FNp/wDGqXsY63k9fTy/yDkdv6/yF8QRaHaWtpbaVPJf3C7muL1kaNHz91VQ8jHPJ61r2tzo2veEdK02+1f+yLnT5Zj+8tnlWRZCDkFAcYx3rH/4TC//AOeGl/8AgptP/jVH/CYX/wDzw0v/AMFNp/8AGqp04tW5mPlenkYzgK7BW3KDgNjGfem1Pe3kmoXTzyrErvjIhhSJOBjhUAUdOwqCqNDpLjwgln4EtPEM99slvLp4Ley8rJdV+9Ju3cAHjGPSubq9fa3e6lZ2Npcz+ZbWMZjt49oUIpO49ByST1PNUawpRqRT9o7u7+S6L7vxNqsqcuX2atZK/m+r+/byJrORYbyB3OFWRWJ9gRXUXWu2Ml5cOs+VbWEugdjcxDOW6e/TrXI0UqlCNV3ZvQxU8PFxilr/AJNfqdbY+IbeO+16IXs1jFfTeZFewBsrh2IyBg4INZviC+jnht4U1a81Z1JZ5J2YRj0Cq3OfU1iUVEcNCE+dP8u1u1/xNamPqVKbpyS69+rv3tu3ur+Z0drPp2p+HbSxur/+z5rWWRwWhaQOGx/d6YxVbT762tdA1y0abMs5h8kbT84VySenHHrWLRT+rqzV3a9+m979u5H1yWj5VdJxvrqnHl720T0svW5s3GoQN4VsrRZM3MVzJIyYPCkDBz07VuNqui3Gvx6+99IkoKytY+QS28KBgN93GRXFUVMsLGXVrf8AHdbf8E0p4+cLXinbl3vvG9no1rq/LyOh0jVLS4t9Xs7+ZrRL5lkWdULhGVicEDnBzS6zeaevh2xsLO6a5khnkd2aMpnIHIz2/Xiudoqvq8efnTe97dL2t67eZH12fs3TcU9Gr63s3zW3tv5Ha6Pq9hpckMsev3QslAL6bNCzk8cp/dwfXiqvhXx1b+Fmvs+FtB1xLmQOv9sW8kphAz8qbZFwOec56CuUoqqNFUZOad2/T9F/wSMRipYinGnJJKPa/wCrdvRWR1HjDxxF4uhto4/DGg6AYWLF9Ht5ImkyBw26RsgfhXpPiDwPrvin9nn4f3+labLe2elrqk15NHjEKecDk5PordPSvDqK6r6NPqcFtYvt/X6hT4WCzIx4AYE0yipKOh8f6ra634w1K+spfOtZnUpJtK5wijoQD1FWPCuqad/YmsaLqdy9jFfGKSO7WIyBHQk4ZRzg57Vy1FZezXIodFb8CXHSx1niTVtLi0XR9G0+dtTgs5JJprhozEsjOR8qg8gADqfWtXSLnwponiCDXbLWLm3hhPmrpf2ZzL05j8zO0gnuT0rz6il7LS13/wAOS6aatfQ1tJ1KGLxVZX8oFvbrepO4UEhFEgY8D0FM8TXkOoeI9Uurd/MgmupZI3wRlSxIODz0rMoq+VXT7F21uFbvg/wXrfjvVGsNB06XU7yOMzNDCRkICAW5I7sPzrCoraMlGSbB3toeq/tQKY/jd4gVhhlS2BH/AG7RVebSX+D/AMKfEFrrMkUXiXxSkEFvpiSK8tvaq/mNLLgnbv4AB57+uPHKc8jSMXdi7HksxyTUp2i13/Lr9+3oLl+Hyt+G3+Y2iiikUFFFFABRRRQAUUUUAFFFFABRRRQAUUUUAFFFFABRXpvgTT7HQfAc3iZ9Ft/EWtXmqLpGnWV7GZYUbyw7OYwfnY7lUA963fG3hSLVPBg1fWtH0vwrqthq0NheS6GI3haGQNktFG5USxlTlcqSCMgcV4k80pwrezcdL8t7q9/KO7V3a/fpbU1jTclf1/C/+TPFaK928QeBvh9H8M/CMx8VtZpJPehdUj0EmW8w6ZVwJAwCdBknOTjFeeeD/h9b+Jo9c1G61qPSfDukbfP1KW3aRm3sVjCxA5LNjpnj1qqOa0K1KVVqUVFtaxl/Nyq2mrb6K7WzVwdNq3mcZRXY+OPAEPhnS9K1jS9Xj17QtSMiQXiwNA6yIQHR42JKnkY5Oa7G6+A+kWXiiLw3N44t4tcukiaytn0+TbI0iBlWRwxEZJJA+9kAHjIFaSzTCQjGbk7O/wBmV/ddpXVrqzet7WF7OV7HjtFdt4V+Gb6vJr8+s6nF4f0vQWEV/dyRNMyyM5RY0ReWYsp7jpUfizwLaeH7bSNU0vW4PEGjahI0cc6wtDIjoRuSSJiSvXjkg1t9ew7q+xUve9Ha9r2va17a2vewnCSTdtjjaK9++IHwf0HXvipq+j6X4gsNH1mcq1jocViyw8QqQhkXCozYJwAeo7nFeCSRtDI8bqVdSVZT2I7Vngcwo4+ClTunZOzTWktt0rrfVXWg503Bu4yinxJ5kiJnG4gZr2G8+AWmW/i658KReNreTxIP+PWzewdUmPlhwrybiqMRnA+bjHc4rTE46hhGlWdrpvZvRWu3ZOyV1dsmMXLY8borsfBXw9HiW31nUNU1SPQdG0cILy8khaZg7sVREjXBZiQe4xijxx4Ah8M6XpWsaXq8evaFqRkSC8WBoHWRCA6PGxJU8jHJzT+vUPbfV+b3ttna9r2va17a2vew+SVr2OOoorsPAfgGHxbaaxqWo6vHoWh6TGj3V68LTNudtqIsYILEkHvxW9atTw8HUqOyXq93ZaLVtvRJEpNuyOPoruPG3w5tPC/hXRtfsNej1uy1SeeKFo7ZosLHt5O45DZJBXHGOpBBrqrr4D6RZeKIvDc3ji3i1y6SJrK2fT5NsjSIGVZHDERkkkD72QAeMgVwSzXCRipuTs+b7Mvsu0rq11Z73L9nI8dorq/D/gq1vNS1a317XbTw3DpZKXDTAyzO4YrsiiU5kOQc44A5Jqbxp8P4vDmm6Tq+lavHr2iaoZI4LpIGgcSIQHR42yQeRjk5rp+uUPaqjfV7aO217c1rXtra97C5Ja+Rx1Fe8+BvhBofh/4oaBpGq+ILHU9cSVHvdBmsWaHlNxj805R2AIOCAOOueK5X4L+HrDW/jNbwX1uk9hZvc3rWxHyuIUd1Uj0yo49KzweOo42s6dK9lFSvZrR31V0rrS91o+gpxcIuT/q5wuseFdY8P2On3mpadcWFvqCNJavcIU85VxllB5xyOe+eKXxF4V1jwjeJa6zp1xp08iCRFnQqHQ9GU9GHuKd4s8Wan421671fV7qS7vLhyxZ2JCDPCqOyjoAOleieEL6bxp8FfGej6nI10PDyQanpcsp3NbZkEcsak9EZSPl6ZGa9NWcW+2vy6/hqZvRpd9Pm9vxPI6KKKkoKKKKACiiigAooooAKKKKACiiigAooooAKKKKACiiigAooooAKKKKACiiigAooooAKKKKACiiigAooooAKKKKACiiigAooooAKKKKACiiigAooooAKKKKACiiigAooooAKKKKAPYvAurwaH8NfDOqXIY2mm+NEnuSq7iieTGc4+itj6U7xpNoWk+BfFtjZeJbHWrrU9ah1CGO038Q/veu4D5hu5AzjI55rz/wf4+1LwX9sito7W+sLxQt1p2oQCa3nwcqWU9wehBBrM8QawuvatPfJp9npaybf9F0+NkhTCgfKGYkZxk89Sa+bWWzeKlOTtG/NpbX3lJJpq6s77PVG8aijHz/4f/M9KtNNs/H/AMJfC+lW3iDRdL1HR7u8NxBq96tqWWVkZWQtww4OcVS+Hc2naj4M8Y+D7rV7HSb6/ktp7S6vZdltI0LtuQyYwuQeCeDXmNFdby9+znS9po5cy0Wj5uf5q/4E8+ztt/wf8z034h3Gn6D8O/DfhK31ay1nUbW6uL67m02XzYI9+0IgfGGOAScdKg+OWt2998ULjUNKv47hFt7Mx3VnMGAdbeMHDKeoII46EV5zRWlDL40ZxqOV2ue/nztSf5aeQOelkulv1PTvh3qFjr/g3xj4Y1DWLbS9S1WS2u7a81OUpDI8bsXV5OdpIbIJ6msPxZ4X0Xwna6RDb69b61rckjPe/wBnyiW0gTI2BZMDcx5JxwK42irjg3CvKpCo1GTu46b8qjvvayTt38tCea8eVr+nqe6XniLSW/aui1ddTszpIvoXN+LhPI2iBQT5mduM8da8rs9NtPEXjgWVxqcGmWd3esjahNzFEpY/OeRx+IHuK5+iow+AWGilCbuoRgn/AIb2frqOU3Lm83c2/Emj2nhzxXdafZ6pBrNpbThE1C34jmHB3Dk/zI46mvWbzxFpLftXRauup2Z0kX0Lm/FwnkbRAoJ8zO3GeOteF0UVsD9YX7ybvyShfTXm5bv109BOW6S3/wCD/mer+Dr7TNc8P+PPC0+r2Wk3eqXUN1ZXV9JstpDFI5ZGk6LkNwTwar+PnsdH+H/hjwdZ6naa7qkF3cXlzJpcnnQoZNqpGrgfO2BzivMKkt7iW1njngkeGaNg6SRsVZWByCCOhB71n/ZyjW9qpu1+a2nxcvLvva3Tv9xbqXvp3/H/AIdmr/whfiH/AKAWp/8AgHJ/8TXZfDm702fwr4w8H6xqUXh+61I28tvdXyMIllhdiY5MAlcg9ccYP0rnv+FreNv+hx1//wAGc/8A8VVDQvFL6Trk2qXmn2XiCaYN5kesK8yOzHJc4ZSWz3J7mnWo4nEUZQqpXVmuV63TTXxK26JTjFpo9D+JWm2ekfBjwXaWWoxatHHqF8Hu7dWETv8AJnZuAJUdMkDOM1j/ABy1u3vvihcahpV/HcItvZmO6s5gwDrbxg4ZT1BBHHQisDxl8QL7xnDp9rJZ2Gl6dp4cW1hpkBihjLkF2wSSSSBkk9q5issDgJ0uWpXfvL2mmn25KWttL6LbQuU1tHtb8bnrvwi1a1XQfERt9U0fTPGk08UltqHiAIyGHkyBHkVlDkkEkjn+Wj8XPFQ1DwD4Thu/EGl6/rNlqNw1ydLEaIowhXCoq5HbdtAJBwTjNeI0USymnLFrFOWqd9lf4eW197dbdyVU93l9fxPpO2i8P33x20/x+PGGhxaLd3CXIgluwl1Gxi2lHjI+TDdWYgY98CvOPg34m0/w78ZLe61C4WHTbqS5s5bnPyxrMjxh8+gLAk+leZ0V04DA/UZ8zm5LlULOy92N+3Wz3JqTdRNdXrfzOg8beBtY+H+uTaZrFnJbSKx8qUqfLnQHh426MpGOR616D4f0m6+HfwY8W6jrUL2Fz4mSDT9LtJxtlmRZBJLLtPIQAAA9yfpXlt/r2papZWVne39xd2tkrLbQzSs6wqcZCAn5RwOB6Uazr2peIrwXWqX9xqFwFCCW5laRgo6KCTwB6V6y0i130+XX8NDN6tN9Nfn0KFFFFSMKKKKACiiigAooooAKKKKACiiigAooooAKKKKACiiigAooooAKKKKACiiigAooooAKKKKACiiigAooooAKKKKACiiigAooooAKKKKACiiigAooooAKKKKACiiigAooooAKKKKACiup03wNL4h1C9Gnzw2mnWsEc8t5qUojSJXUFQzAdSTgADtWh4s8HWvh3wPot2PInvri7nR7y1nMkc0ahdu3nHc9gc5B6VyTxVKFVUb+83b8L6/I64YWrUpuql7qV/uOGortk+EursqQm80xNVePzV0hroC7I27gNuMbsc4zmovh18O7/wAaa1aj7HM+kpcrFeTxkDyx1I5749u9S8bh1CVTnVo7/wBefTuNYPEOUYcjvLY46ivQviR4abQ7JWXwYfD0H2ny0vWvJJjKMNhcMxAyBnIHavPa0w9eOIpqpHb1T/JtE4jDyw1T2c9/Rr80goruvh/8H9X+I2h65q9hfaXYWOjPAt5LqVyYFRZSwD7tpXau0k5IPQAEnFR/EX4T6r8N7fSry5vdM1nSdVR3s9V0a5M9tMUOHUMVUhlJGQQOtH1mj7X2PN721vlf8tTNUajh7RLT/g2/M4mivbJv2T/E9vrH9jP4g8LJrcsSTWelvqZS4vVaMOPKVkHqV+bbkq2MgZrh/BHwm1vxxe6vFHJZaNa6OM6lqGsT/Z7azJYqFdsE7iwICgEkg1nHG4acXKM1Za/ft/l66blvD1o2vF6nF0V2PxA+Fuq/D1dNuLi60/V9K1NWay1XR7n7RazlDh1VsAhlJGQQDzXq/wANP2X7iP4jeF9P8W3ug3IunSW/8Mx6my6jHCyFgXRdpGAVJCsWA5xjNTUx2HpUvauWmvztv93Xs9wjhqspcijr/nsfO9Fel/C/w203xIe7sNd8N6FcaNfpNaw+JpZBDcMsp2oAqOWxtGc46jmsz43WesWPxa8UQa8unjWResbpdJVltd5AJ8sMAcc9xmrjiYyrKiu1/wAv8+4SoShCUn0dvz/y7a/I4eivYY/2XfFMnk2bar4di8TTW4uI/C8mpBdSZSu8L5e3aGK87S2cVY/Zq+D2k/Ebx5pkfiDVdGSxS7e3uNAvLuaC+ugIicxqi9Acfxqflb8cp5hh4051VK6iru39dbaPbzGsNVbjFxtc8Wqa1tZ76dILaGS4mf7scSlmP0ArsfiF8NoPA8cU0Hi7w14iE0zR/Z9DvJJpIQOcuHjXA7dTzXVSatcfCj4P+HZdDb7HrvisXE93qcfE0dtG/lpDG3VQxyxIwT613UqkK1P2kXp+phWpyo1PZy3PJI7WeaGWaOGR4YceZIqkqmemT2z71DXTeAviBq3w91j7Zp0u63mwl5YygNBdxZ5jkQ8EEE+4zxWr8bfClj4P+I2oWmloY9LnSK9tYyc+XHLGsgT8CxH0ArVqyTX9P+vyZmnq0cJRXWr8M9Tb4bt42FzY/wBlLd/YzB5/+kb/AF2Yxj8c98Y5rkqTTTswTvqgooopDCiiigAooooAKKKKACiiigAooooAKKKKACiiigAooooAKKKKACiiigAooooAKKKKACiiigAooooAKKKKACiiigAooooAKKKKACiiigAooooAKKKKACiiigAooooAKKKKACiiigAooooA9S8P6bNrPh7xb4cs2jl1iSOweK38xQZfKUCQKScEj0qDxfpNz4d+Gfhe1vQq3MWoXLSRI4fyz8p2kgkZx27ZrzWkrzZYSTre0Uvd5ua1tb8vLvfb5HoxxUVR9m468rje/Rty2tvdvqfQusXWq3Pix9e0fQvDMulttuYfEF4WAUBAcuwkyGBGMbc8dK8u+Gdw118VdGmbbukvt58sELkknjPauLorGjlyo0p0ubePLe3TXfV3+Vl5G2IzB16kanLs+Z69fLRW+d35l3Wv+Qxf/wDXeT/0I1Soor1orlSR5c5c8nLue8/BPw3e+LvgR8VtJ04xG/ubjSRBHNKsQlYTSNsDMQNxxgAnk4HUiovi/od38Pfgf4F8H66I7bxKmoXupTaesqySW0LhFTftJClsEgZ7V554d+If9g/Dfxd4T/s/z/7fls5PtnnbfI8iRnxs2ndu3Y6jGO9cdXkxwtSWJnUk7R51JK2rtCMd76K99LX07Hb7eEaUYpXlytel5SfbXR9+p7h+05rV74f/AGgpNT0+4e1vrK102e3mXBMbrawspGeODzW9+z74kuvEfhH4laZFp2j+KvF2rXNpqMOk69gR3+2SQzFQHjy679wAYfSvnGirll8ZYWOGb1Sir2/laffa61V/mSsU1W9ql8vk4/k3Y95+OGreI9H0DwjoniLQvCfhaO3u5b9NC8P+Z9pt8lQzTqZHVQ4AIAOTg5Ar120+G+tat+11pXxDtDazeDdSvI7u01dLuMpMrW4URqu7cX3fLtxxyegzXxTRWEstk6ajCaTtJPTS07X05t9Fa7fmX9bTb5otr3ev8t7dNtX0R6X4K+Fviv4heNr+58O6LcarBp+pqbp4SuIsykjOSOyn8q7j9qj4b+JvD3xe8ReMb/RbiDw3c6qnk37bdkmVBAAznna3btXz5RXX9XqqvCqpq0U1bld7Plvrzf3dNPvM5Vqc6dSEou83fftzW6f3tddfI+pvib8HfEHxB+NGo+OdI1a10vwVqLJfxeLlvYxDaxiFck4cOHBUrt4Oa8w/Zu1az0f9ofwpeXl+otBfuhvLg7AxdHVWYk8ZLDqe9eUUVlTwMo0HhpzvHl5VpZpWtrq7v7l5BVxCqT9qo2k3d69fJdPx9Tt/iT8I/F3w1mS48SaLNplveTSLbyu6MspBydpVj2I/Ouj8dW0niL4H+ANYslM9to4utMv9nP2eQy+ZHu9Aytwa8lrofB/j7XvAk9zJot+1qt1H5VxAyrJFMvo6MCp6nnGRnivToqcaXJVd33Stt5XfTz8/I5q0o1KntIK3zvv8kZei6Ne+IdWtdN063ku726kEUUMYyzMTXoH7ReoW158Ur23tZluE062ttPaVDlWeKJUfH0YEfhXJeFfHmueCYtRXQ75tOe/jEM08SL5uwZ4VyMpnPVSDWAzFmJJyTySa1bXKor1+ey/N/f5GKXvOT9Pyf6HWL8M9Vb4bt438+x/slbv7GYfP/wBI3+uzHT8c98Y5rkqKKTtfQa8wooopDCiiigAooooAKKKKACiiigAooooAKKKKACiiigAooooAKKKKACiiigAooooAKKKKACiiigAooooAKKKKACiiigAooooAKKKKACiiigAooooAKKKKACiiigAooooAKKKKACiiigAooooAKKKKACiiigAooooAKK7b4T+ENU8TeJoLrT9EtPEEGnTRTXOn3l7DbJMpbhCZGGc4I4z7iqvjrRb2X4l6ppa6FFoV9NfeSmjwTI6W7uwCxhwdpGSOeB9Krlenn/wCeZa+RydFejf8M8/EP7THAPDcpkkaRFxcQ43RnDKTvwDyMA8t1GRXM+GfAHiHxlq1xpuj6VNd3lsC06cRiEA4JdmIVeeOSKOV3tYfMrXuc/RW/wCMPAeveAryG117TZNPkmTzImZldJV9UdSVb8DXR2f7P/xA1C1sJ4fDkxS+CtArzxI5VvusylwyKfVgByPWhRb2QnJLdnntFdB4X8A6/wCNNUn07RdNkvrq3UtMFZVSJQcEu7EKoz3Jpvi7wLrvgO+itNe06TT5pU8yIsyuki+qOpKsPoTSs7J9GV1a6owaKKv6boOp60sjafp13fCMgObaBpNuemdoOKAKFFX9S0DVNFVG1DTbuxWQkI1zA0YYjrjcBmqFIAorovCfw+8Q+OY719C019RWz8vz/LdFKeY21DhiCRnqR0AycDmneMvh14i+H8lqmv6Y9iLpS8EgkSWOUDrtdGKkjIyM5GRTcWldoV03ZHN0V3a/A3x02g/2wPDtx9i8n7TjfH53lYzv8nd5m3HOdtYng3wFr/xAvprTQNOfUJoY/Nlw6RpGnqzuQq/iafLK/LbUXMrXvoc/RXUeJvhn4m8HQWc2s6W9jHeTPBAXljbzHXbnADHj5lw3Qg5BNMb4c+Il8bjwgdP/AOKi80Q/Y/Pj++V3Y37tnTnrSs72t/X9Md1a5zVFdD4X8A+IPGerXGm6Npkl9d24LTBWVUiAOCXdiFUZ7k0zxd4F13wHfRWmvadJp80qeZEWZXSRfVHUlWH0Jo1sn0Y+rXVGDRXfw/AXx7PpKainh2YwPD9oWPz4hO0eM7hDv8w8f7NaPwQ+Ct78VPEFobiN08O+e8F3c293BHOjCMsAqOSx5K8hCOT+FqnJy5bakOcVHmvoeX0V1njX4XeIvh/DDPrVnDbQXEjRxNHewTkkDPIjdiOPXFcnWfkaBRXX/DH4dX3xG8WaXpkcVzFYXNysM99FAzpCMZOT0Bx6nuK0/iV4Z8N+H7VF0XSPFljOtyYnudeEYgkUA/cCxqdxIB6njNU4tJS7/wDA/wAyFJN2X9f1Y89or1rxD4F1rwn8HXTU/Benxkagkx8SRalbzTKrrhYSkbswBxn09s81V+DXhbwN461nS/D2tp4hj1q/uGiS40+4gS3VcZGQ8bNng559KpQbnyLf/hiXNKPO9jy+irOpW62eoXUCElIpWQFuuASOa7Jfgb46bQf7YHh24+xeT9pxvj87ysZ3+Tu8zbjnO2s4+9HmWxpL3Zcr3OEore8H+Bdd8e301poOnPfzQx+bKQ6xpGvTLO5CqPqaf4w+H/iDwDcW8Ou6c1iblS8MgkSWOUA4O10JU474PGRTaaV2K6bsjnqK9t17xZqXhP8AZ+8B22lvb28WsLqcN6Ws4ZHlUTbQN7oWXAZuVIPPsK8w8J6Hba42ri5kkj+yadNdx+WQMumMA5B45pVLU2/IlS93mf8AWtjBorf8TaDb6SNEFo00z31hFcyK5DHzHJBVcAccDjk1s6b4JtLXw9b6jq9nrE81xM8aW1hGFaNVA5bcp6544rJ1IpXDnVk+5w9FdJ4Z0K41LxAz2OnLf29pOHe0vJ44iybjhWLEZPGDgfhVfW4YbXxddJqGntp0C3B82ytJFLRL/dVuV/pT51zco+bVrsYdFdX4m0PR7fw5peraT9uVLuaWJo710YjZjkbVHrWJovh/UPEVy0Gn2rXMirvbBCqo9SxIAH1NOM01fYFJW5jPorR1rw/qPh24SHUbVrZ3XcmSGVh6hgSD+Brql8D6YWQGe5w3h46r95f9dj7v3fu+3X3qZVIxXN0DmWhwlFbng/xlq3gfVGv9Gnit7qSMws01tFOChIJG2RWHVRzjNdr+0xDHB8aNeSKKOFNtsdkahVBNvGTgDjrW7VopjT1a/rp/meXUUUVIwooooAKKKKACiiigAooooAKKKKACiiigAooooAKKKKACiiigAooooAKKKKACiiigAooooAKKKKACiiigDf8ABeh6jq2vafJY6fdXkcN1D5jW8LOE+cdSBx0PWvUPifouo237TFxfTWF1FZS+IbcR3LwsI3zImMMRg9D+VeU6D4z8QeFUmTRNd1LR0mIMq2F5JAHIzgtsIzjJ6+tWdU+I3izXI4Y9R8T6zqEcMqzxLdahLIEkX7rqGY4YdiORW8ZqLg/5Xf8AL/IylFyUl3Vvz/zPfZpH/wCEnlG5v+Srr39zWDpfhe2uv+Fo61c2WteIoYdda1k8O6PdtAJgZZGEs21WJVSOPl4Ofw8SPinWjKZTq9+ZDd/by/2l8/af+e2c/wCs/wBvr70uneKtb0fUp9QsNYv7K/nJMt1b3TxyyEnJLMDk5PPJqVJWS7f5QX/tv4lOLbbXf9ZP9fwPavjFBa2Xwl+HW3w7deGbdNQvD/Zl9ctcSxoTGxyWVSA33tpA4I9a7q38H+Jbj9rK18UQ2ly3hu4kSaHVlz9meBrcKqq/QknA29fbvXyvqXiLVtYhSG/1O8voUkaZY7m4eRQ7Y3MASfmOBk9TivTvh/8AEHwZ4EGjat9o8VanrWmoZotNl8lNPFwUK5B3lguWP8Oa0jNc3O+jv+CT/L+rmU4Pk5F2a/Fv9Te+EzWdx8PvibaTaDdeJ5fttrNJpVjdNBPJCJJMsCqsxVWIJAFYHxe1KYeAfCWljwTd+ENMhmuZ7L+0NS+0zSKxXeNjIrou4AgkYOeK8wsde1HStTOo6ffXGn3xZmFxaStE4z1wykEU3Vta1HX7xrvU7+61G6YYM93M0rkem5iTWDleCj6fh/wxvb33Lzf4lKvQPhfqH2G31Af8LKu/AO5k/d2yXbfaeDyfI4+X/a9eK8/oojLlE1zHoPxP1D7ba2A/4WZd+PdrsfJuUu1FvwPmHn8c9OPSvPqKKnq2V0ser/C64kt/g/8AFponaNjaWCEqcHa1zgj6EEj8a4+38cX03hrSvDN2Yn0az1H7cm5CXRmAVhnP3cc4x1rDtdWvrKzu7S3vLiC0vAq3MEUrLHMFOVDqDhsHkZ6Gqlaqo1JSXS34O/5kcqs0+rf4pI+wPEl1/Z/x0n1fSfhfq2t6qri5ttZTWmhtJ4vKGHy0XlqmzjBbHGK8l8BW114i+EfxSs9HtJJdRmurG4NlafvJDAJXLABeWVcjOBXmS+MvEC6P/ZA1zUhpONv2EXcnkY9PLztx+FVNH1zUvD14LvStQutMuwCons5mikAPUblIOKXMtulv1T/RCUWteun4f8Pp28z13x5Y6hoPwS+GMGrwz2k8OoXz+TcKVeOMvGwBU8jg5A9CK72TwnrD/tdJ4gGnXB0EzrqP9qeWfs32f7MD5nmfdx269a8S8VfEKLxN8N/DeiTNe3GsWF5eXN3dXRDLL5pUqQxYsx+XnIH41zn/AAmOvjRf7H/tzUv7Ixj7B9rk8jHp5edv6VftLT5lurNfct/mvzI9nzQ5X1un97/RnsnwluLDUPh78TIm0O58UGS8tLh9LsblreeWASSfOCqsxVSQSAKwvi7qM/8AwgfhHS18E3XhDTYprmey/tDUvtM0gYqHGxkV0XcAQSMHPFeWaVrF/oN4l5pt9c6ddpwtxaytFIPoykGl1bWtR1+8a71O/utRumGDPdzNK5HpuYk1nzLlUV5fh/wxrb3nL1/E+kYNAn+I3j2ytvFHg3xD4Y8WTwxofEui3Ra2BWIBJSNpUJtAyUf1715r+zyq2fx+8OxvOsoW7mjEwPEh8uQAg+5/nXER+PPE0ek/2UniLVk0zZ5f2Jb6UQ7f7uzdtx7YrGhnktZo5oZGiljYMkiEqykcggjoavnXOpGfI/ZuHdWNHXvDmraDcN/aemXmn75GVftUDx7iDyBuAzVweAfEDeDD4sGmyf8ACPCf7Ob7cu3zM4xtzuxnjOMZ4zVbXfGWv+KI4I9Z1zUtXjgJMS313JOI89doYnHQdPSqv9u6l/ZB0r+0Lr+yzJ532Hzm8jf/AHtmdu73xmsVZJr+v63N5Nydz0z9mfxNrGn/ABX8N6Xa6tfW2mXV7unsobl0hmOw8ugO1ug6jsK43xp408R+JtQubLVdd1TVraK6cxW95eSTIjZIBVWJAODjj1rA03UrzR76G9sLqexvITujuLaRo5EPqrAgg/SovPk87zvMbzt2/wAzcd27Oc59c1blzKKfS/6f5EKNm2utv1/zPZ/DnhPXI/2e/GNq2jagtzJq9i6QtauHZQr5IXGSBXO/AFG0345eFY7tWtpI77y3SYFWVirDaQehycYrE/4XB48/6HbxF/4Nrj/4uuautSu76/kvri6muL2STzXuZZC0jOTksWJyTnnNWpqNVVPT8El+hDg5U3B9b/jc39e8OapoPiWafVtKvLG1F+VaS6t3RD85OMkYPAP5V9MeJLr+z/jpPq+k/C/Vtb1VXFzbaymtNDaTxeUMPlovLVNnGC2OMV8t61468SeJLGOz1bxBquqWcbB0t729lmjVgCAQrMQDgkZ9zTF8ZeIF0f8Asga5qQ0nG37CLuTyMenl524/CphL2cVFdNvw/wAipx9pJyfXc774W6nqf2XxrHB4RfxR4cvVi/tPT7O5KTQqJS0TRsmWIDZyQpHHOBR8WvBtlofgzwxrGmrrekWd/LcIug65Jue3ZSuZI+F+Rs9SoORXm2j65qXh68F3pWoXWmXQG0T2czRPj03KQadrXiDVPEl0LnVtSvNUuQNomvZ3mfHpliTipbXIorpb+vP5j153J9f8j0X4gf8AJCvhX/v6p/6PWvL7e6mtfM8maSHzEMb+WxXcp6qcdQfSu3t/i5dL4BtPCd14e0LUrSzjuEtby8t5WuYDMxZmRhIFDAkY+XsOtcHROzk2tmEVaKT8/wA7lhtQunkgka5maS3CrCxc5jAOQFPYA9MV3mreKtaj+Hmg3KaxfrcSXVwrzLcuHYDbgE5yQK87qZ7y4ktY7Z55Gt4yWSFnJRSepA6AmsJwUreQnFNp9v8AIvaRa3uqapFOkNxdt56tLIqs5yWySx9evWtr4oWNzF401m4e3lS3e5IWVkIU8dj0rn9N13UtHVxYahdWIkwXFtM0e7HTOCM0/UPEeratCIb7VLy8hDbhHcXDyLn1wT15NJxlzqS2X/A/yCz5rnTXljc6l8M9C+yW8t0Yry4EnkoX2k7SM46Vb8CpEvhPxPbT6ZPqcyyQNJYwyGKUqGYE8KTgHGRiuK07XNR0ff8AYL+6st/3vs8zR5+uDTI9UvYb5r2O8uI7xmLNcLKwkJPUls5yal020499fxuTyO1vP9bnV+Nbp/8AhHNGtBoE2i2iSTSQfabrzXYHG75SoZRn1GDniuU/tS94/wBMuP8AU/Z/9a3+q/udfu+3SmXl9c6lOZru4lupiMGSZy7fmagrSEOVWZcY2VhyfeX616j+07/yWvXv9y1/9Joq4jwj4mTwpqT3kmi6XroaIx/Z9WheWJckHcArqdwxjOehNS+PvG178RPFd74g1GG2t7u62B4rRWWJdiKgwGZj0Ud63bXKkgXxN+X6r/I56iiioKCiiigAooooAKKKKACiiigAooooAKKKKACiiigAooooAKKKKACiiigAooooAKKKKACiiigAooooAKKKKACiuo+Hnhm48ReIrVv+Ee1fxHpVtNG9/b6PbvLL5RPIyo+UkA4yR061X8YabDH421Kx0rSNQ02E3RjttMvkb7VGCfljZeu7kccnnvVcr08xX38jn6K6D/hX3inzkh/4RrWPOkEhSP7BLuYIcSEDbztPB9O9Zuk6HqXiC+Fnpen3WpXhBIt7SBpZMDqdqgmlZ7BfqUaK0dT8N6tosKS6jpd7YRPI8SPdW7xqzrjeoLAZIyMjtms6kMKK7Dwz8OrjxR4J8Qa7azyPc6XcWtvHp8NuZHuWmYqMEHIIx0wc+1YOoeGdY0jVI9NvtKvrLUZCoSzuLZ45mLHC4QjJyeBxzVcrTsLmRm0VfbQdTXWP7IOnXY1XzfI+wmBvP8zONmzG7dntjNdf8Mvg3r3xG8VQaWLHUdPsvPe2u9S/s+SWO0kVSxWToA2QBgsDyKIxcthSkoq7OBorc8Q+CPEPhNUk1nQtT0mGRykUl9ZyQLIR2UsBk49Kj/4Q7X/7F/tf+w9S/snG77f9kk8jHr5mNv61JT0djHoq7pGiaj4gvBaaXYXWpXbDIgs4WlcgdTtUE07WdA1Pw5d/ZdW0270u6xu8m8gaF8eu1gDimBQooopAFFFFABRXUfDzwzceIvEVq3/CPav4j0q2mje/t9Ht3ll8onkZUfKSAcZI6dar+MNNhj8balY6VpGoabCbox22mXyN9qjBPyxsvXdyOOTz3quV6eYr7+Rz9FdB/wAK+8U+ckP/AAjWsedIJCkf2CXcwQ4kIG3naeD6d6y9L0fUNcvVs9Osbm/u2zi3tYWkkOOuFUE0rPYL9SnRV3VtF1DQLxrTU7C6067UZMF3C0TgHvtYA1oW3gPxNeWtpc2/h3Vp7e8bbbTR2MrJOSM4QhcMcA9PSjV7Be25hUVd03RNR1rUBY6fYXV9enOLa2haSQ46/KoJpNW0bUNBvGs9TsbnTrtRlre7haKQZ9VYA0vMfkU6KKv6boOp61HNJp+nXd9HAUErW0DSCMu21AxUHG5uBnqeBT1ewFCitDWvD2q+G7pbbV9MvNLuGXeIb2B4XK+uGAOKsf8ACHa//Yv9r/2HqX9k43fb/sknkY9fMxt/WkBj0Vc0vR7/AFy8W002yuNQu2GVgtYmlkP0VQTS6touoaBeNaanYXWnXajJgu4WicA99rAGgClRXc+AfhJrXjPxBodnc2d/pGl6tL5UWrS2LtB90sCpO1Wzjs1UPAngSXxv4/svDUU4hE07JLcsOI40BZ3x7KpOKtRbaXf+v1J5lZvt/wAH/I5Wiut+Iet+HtS1CGz8L6MmmaTY74o7mR2e5vMkfvZWJxk4yFAAGSK6TVtH0P4gfDrUPE+i6XHoWtaE0KapYWzMbe4hkO1Z4wxJQhhhlzjnNTa6cl0/q/8AX+Y9mk/68jy6iiikMKKKKACiiigAooooAKKKKACiiigAooooAKKKKACiiigAooooAKKKKACiiigAooooAKKKKACiiigAooooAKKKKACiiigAooooAKKKKAN7wXrF/pPiKwFjfXNmJrmFZPs8rJvG8cHB5HJ6+teifEj/AJOmvf8AsYYP/RiVwvg34meIvh+lyuhXcFqLhlaTzbKC4JK5wQZEbHU9MVp+JPjd4z8Wm2bVdUhuXt7pLyORdPto3EycqxZIwTj0JIPcVvGcYuD/AJX/AJf5GMouSku6/wA/8z3eXxVrKeJJEXVbwIvxPFoFE7YEB6xdfuHA+Xpx0rjtPuL3SfDXxxutCea21WLVYozLZ5WaO2NzLv2leQvAzjtXkzfEvxI10bg6lmY6t/bhbyIv+Pz/AJ642/8Ajv3fatP4eeLL6HxtearL40k8HXV0JJp9US3klErswYoY4lPBJJ6YGPpSUuZKPl+kP1i/kypK135/rJ/qvmdb8Ub7VtR+A/w3uNZkuJrx7q/xLdEmR48oEJJ5PGME9gK8Xr1/4q/EDSNY0nwppA1q68bNp91cXuo6lKklt9pMrofLTeNwwqYyRxkYHGKyv+E0+Gn/AETW+/8AClf/AOMVMrSk5X/qyHG8YpW7/mza+F+pajpHwL+Jl3pU01tdRz6d+/tyVeNS7hiGHI4JGR2JpnxA1S/1b4G/D3VNTuZ7nVUvr6KC7uHLTNCrIR8x5IDdPSuL0P4m634Ol1SPwxdyaJp99cLMbUBJiAhYxqXZcsAGIPQNk5HaqfjLx/4g+IF5Bda/qL38tvH5UK7EjSNfRUQBR+Apyndab6fK1v8AK3zYlG0rvz/G6/4J9DRC3udStvjcyRmGPw+08o7HVkxbBce5KsPpmvNv2Z/EGp/8Lo8P239o3S211czSTwiZgkrmJzuZc4JyB19KydV8bWNl8DtG8I6dqD3N3d6jNqWqRbXVYCAEijBYANkDcduRnFcHpGr3ug6pa6jp1zJZ31tIJYZ4jhkYdCKpySq3Wy/XV2++3yRHI5UnHq/00X+fzZo3evalrmqW8Gr6neX1ulwPku7h5AoLYONx44r6j8TeOdB8N/HK4tjd+O9Qu7dhbr4d061hlsZYfKA8pIvNBZCnP3fevmjxp8TvEfxBjtk169ivBbszRmOzghOWxkkxopboOua04/jp47i0RdKXxHcC0WH7OreXH5wjxjYJtvmYxxjdSjPljbt+OnX+mXUjzyb7/hr/AF2Nr4W+MrXwtb+NIbix1y10PUljhk1XRVC3OngSlkBJ+UBvukFhnGBS/FrT7qbwb4Y1i28WXninw3NLcQWf9qQeVdWsilTIhJLFgeOQ2OOgriPB/j3X/AV5Pc6FqL2Ek6eXMuxZI5V64ZHBVvxFP8Y/EPxD4+mtpNe1Jr4WylYIxGkUcQPXaiKFGcDOB2FQ2uRR6q39ef8AXzqz53Lv/kc5Xp/wdvvE1pa6mNA8TeGtARnj85dektEaU4bBTz0Y4HOdvqM15hRRGXKEo8x6j8Yr7xPd2emjX/E/hnX41kfyk0GW0dozgZL+QinB7Z9K8uooqHu2Utkje8F6xf6T4isBY31zZia5hWT7PKybxvHBweRyevrXonxI/wCTpr3/ALGGD/0YlcL4N+JniL4fpcroV3Bai4ZWk82yguCSucEGRGx1PTFafiT43eM/Fptm1XVIbl7e6S8jkXT7aNxMnKsWSME49CSD3FbxnGLg/wCV/wCX+RjKLkpLuv8AP/M93l8VayniSRF1W8CL8TxaBRO2BAesXX7hwPl6cdK4rR7M6DN8TvEN14i1Lw/oA1p9Omj0K2je8nYyuyqrsV8tABzhgG6HpXlTfEvxI10bg6lmY6t/bhbyIv8Aj8/5642/+O/d9ql8P/FbxX4W1TVL/TNXe2uNUkMt4DFG8c7FixLRspTOSe3GeKSmrK/RfpBf+2v77lOL1t3/AFk/1R6f8Yp9M1j4V/DjULe61jULVry8hW819VF20QZMglWbKg5xzXeQaz4oT9ryDS4bi/GgoyLFZqW+yi0FuCpCfd27sEH+97182+KviT4k8b2dva65qj6hBbyvPEskaDYzgBsEKDjCqAvQY4Ar1/4dfFC18MWnh+/1r4pXmp2emIJx4XjsrgsXCELCZWAQhSRySQMcVpGa5uZ7J3/BX/J/f5mU4vk5VvZr8br+v8iv8JrzTNH+H3xN1G9u9W07be2sMt5oKobxImkk4BZlwhYAHmsD4v8AizS/EngTwlDYR+Jr77JLcrFrXiK2RTPGSv7pJFdt+xgeO2a4Pw34/wBe8G6xc6loeoSadcXG5ZQoV0kUnO1kYFWH1Bpni/x5r3jy8hudd1KS/khTy4lKqkcS+iIoCr+ArByvBR9Pw/r8WdFv3jl5v8f6/Izv7D1I6SdV/s+6/ssSeSb3yW8nf/c3427vbOa9R+D2sXmg/Cv4q3un3Elpdx2liqTRHa6brgqSp7HBPI5FcCPiB4gXwWfCY1KT/hHjP9oNjsXb5mc53Y3YzzjOM84qnpvijU9H0fVtKtLnybDVVjS8h8tW80RtvQZIyuG54I96ako3t2/Qmzdr90/uf+R0uofEy98XeFdC8Oa2G1BrDUGnj1O6mZ5hC4AaHJ/hyM9a+hvE3jnQfDfxyuLY3fjvULu3YW6+HdOtYZbGWHygPKSLzQWQpz933r4/rvI/jp47i0RdKXxHcC0WH7OreXH5wjxjYJtvmYxxjdVqpprv+eiX6ee7IdO+i2/4N/6+R1Hwzt10fwr4w8STa/qvhzw4buLT5INGtke+mLFnRN7EeUoHXDDd0OcVt/F2bTNa+GHw1vre61fUbVr67gW819VF00W9MqSrNlAc45ryXwb8RvEfw/e6Og6m9it0oWeIxpLHJjpuR1ZSRk84zzS+KviT4k8b2dva65qj6hBbyvPEskaDYzgBsEKDjCqAvQY4ApKaiklra34NX+/X77DcW5OT8/xTX+X3H0TD4k8RL+2ImjJfXo0iO4EKaeHb7OtutvuXEf3QBgMDjrzXl/7P5DfGx4Qf3txBqEMQ9XMEmAPesO0/aB+IFjb2EMPiOYLYhVgZ4IXcKv3VZyhZwPRiRwPSuM0vXr/Rdct9YsrlrfUbeYXEc6YBVwc5x069ulLmV0m9NVfrrYOV2dt9PTS5QZSjFWBVgcEHtXqnwpUw/DH4q3Mny2/9m20G49PMe4XaPrwa5f4h+MtN8cXtvqdtoEOh6rJvbUWtZWMFzISD5ixn/Vk/NkAkHOau+LfiVDqnhi28MeH9Hj8PeHopBcTwrKZZrycDHmSyHGcdlAwM9+MQtIyvvZr79G/u/Qt6tW2un9zvY4WiiipKCiiigAooooAKKKKACiiigAooooAKKKKACiiigAooooAKKKKACiiigAooooAKKKKACiiigAooooAKKKKACiiigAooooAKKKKACiiigAorS8N2+mXfiDT4daupbHSZJ1W6uYU3vHGT8zBcHJA9j9DTvE9vpVn4h1CDQ7uW/wBIjmZbW5nTY8keeGK4GD+A+g6U+zF5GXRRWn4b8O33i3XrDRtNiE19eyrDChYKNx9SegHX8KEnJ2QNqKuzMorr/Gnw8XwXbpIfE/h/WpjMYXtdJupJZYiAclt0ajGRjIJ5IrkKQwooooAKKKKACiiigAooooAKK39W8F32j+EdB8RTS27WWsvcJbxxsxkUwsFbeCoAyWGME/hWBTejsw3VwooopAFFFFABRRRQAUV0GpeC77S/BujeJZZbdrHVZp4IY0ZjKrREBiw24AO4YwT+FTLp3hf/AIV+16dWuh4t+2+WNN8g+T9n2/f34659/wAO9O1r+X62/wAxX28/6/Q5miiikMKK39W8F32j+EdB8RTS27WWsvcJbxxsxkUwsFbeCoAyWGME/hVLw3b6Zd+INPh1q6lsdJknVbq5hTe8cZPzMFwckD2P0NUovm5RX05jNorU8T2+lWfiHUINDu5b/SI5mW1uZ02PJHnhiuBg/gPoOlZdQtVcYUUUUwCivR/Dfg3QdE8Dp4w8XfarmC9mkttJ0mzkET3TJw8juQdsakgcDJNefWawyXcK3DtFbs4EjqMlVzyQPpRL3Nwj7+xDRVnUo7aK+mSzlae1VsRyOuCw9SKrUovmSZUo8snHsFFFFMkKKKKACiiigAoq7a6XLdade3qMgitNm9WJ3HccDHFUqlSUm0uhcoSik2t9V97X5phRRVvStNl1jUILOFkWWZtqmQkL0zzgUSkopyeyFGLnJRirtlSinOpjdlPVTim1QmrOzCiiigQUUVpeG7fTLvxBp8OtXUtjpMk6rdXMKb3jjJ+ZguDkgex+hppczSE3ZXM2itTxPb6VZ+IdQg0O7lv9IjmZbW5nTY8keeGK4GD+A+g6Vl1K1VxhRRRTAKKK6DS/Bd9q3g/XPEkMtutjpEkEU8bswlYysVXYAuCAQc5I/Gn5iOfooopDCit7wN4NvfiB4qsPD+nSwQ3l6zLHJdMyxjCljkqCeintWG6mN2U9VOKYDaKKKQBRRXo/iDwboOveBZfF3hIXVqmnyR2+r6TeSCVrZn4SWNwBujZgRyMg+1O2jfYV9UjziiiikMKKKKACiiigAooooAKKKKAOx+GPj3xB4J8QQLoeqTaat9PDFciLH7xQ/AOQf7x/Otv47f8AJe/E/wD2E/8A4mue8D+PV8EtM3/CN6HrkrukiSavbyStCVzjZtkXH456CtPx98Xrj4hTPc3fhrw/p+oyXK3MuoafbSpPKwB4ZmlYEHvx2FdCkk4NvZ/nb/JmXK/e03/4J71qXj/Vbz9qC78FT/ZZfC19ci2utNe2jKThrcEuzY3Fs45zxgDpXmn7OfiKHQ/i1pehDQ9JvfO1JwmpXULtdwAKwxGwcAD5e6nqa4qT4uaxJ8Ux4+NtY/2wJ1uPI8t/s+4IExt37sYH97rWP4V8a33hDxnaeJrOK3lv7WdrhI51YxFjnggMDjk96mnPllBy6b+mlv1JlC8JxXVaeut/0N/xr4yt/GGrJpo8MaDoYW/O660m3kjmkG4qQxaRgRznoOQK9sk8aajH+0Qvw3WK1/4Qbz103+w/skfkmIwj5vu7t2fm3ZzXy1dXT3V1LcNhZJHMh28AEnPFemj9orxHgXX9m6GfECwfZx4iNgP7Q27dmfM3bd23jdtzilSlyxXN03XfRf18y6seaT5fk+39foeb6tbJZare28eTHDO8a59AxAqG1VmuoQkYmcuoWNhwxz0P1qNmLMSTknkk0lZQ9219bGsvevY+k/8AhFfiDj/khXhX/wAAZP8A5Jr5zvldb24WSJbeQSMGiUYCHJyo9h0qCiqk+ZpkRVkTWcSzXcEbnajuqsfQE19Z2PjnV9O/ae07wNbJbxeFbCdLe10xbVAsSrb7hIrbdwbPO7PIJHSvkavqH4cePtYtrrw94h8T+K/Bq6daQB7iaOW3fWZYVjOyBtq+YTnaCvB45z33pSStfZPX+vL9TCtG6dt2mc38Go7HR/DPj/xE+s23hvU7a8t7W31q4smuzaq7uW2IqsQzbQN2OKyfi7400fULDwpqemeKbfxF400+4ka51e102S0Z0BVoWcOihmUgjPPvXDeFPiVqPg691Y2ttZahp2qcXemanB51vOAxZdy5BypPBBBFR+NviJqPjiOwtp7Ww0vTbAMLXTdLt/Jt4ixy7AZJJJAyST0rLm9yKWlrfK39dO5u4/vJN9W/nf8Ar8Lnsni745eO9P8Ag/4A1a38SXUWo6hNqC3VwFTdKI5ECA/LjgE9PWvna6uZby5luJnMk0rmR3PVmJyT+ddv4Z+L174f8NwaDd6DoXiPTbaV5raPWrRpTbs+N+wq6kAkAkHNUvCo8C3FvcyeKZtftbtpiYo9Ft4HiEZA6+ZICDnPHpinP35Xv/WhMfdja39Xf6HMaf8A8f8Abf8AXVf5ivq7VfiBq9x+1BdeC5RbyeF9QultbvTWtoyk6vApZ3O3cWyc5zwAB0r598QL4DhWybwxdeIZbsXCmX+2III4hH3IMbsc5x14xmvTfir8ebrRfid4il8PW/h+/kz5dn4hjtlmuokaJQfLmVtpxlgCQSOnTirjJRSv3enfbQicXJu3b7vMzPhXqcvg/wAE/F2708RtNZLZi3aaNZArC6Kq+GBBK8MM9wK5vxV8TR8TvD2g2WvQtc+KLa+KPq4jRDLaMABG20DLK3QkcD8a5XRfG1/ofhzxFosEcEltrqQpcyTKxkXy5PMUoQwAJPXIPHpWACQcg4NRGduVS1St+D/r5aGjjdya0bb/ABSR9heI/FHhrwj4+uvD+qeOdLs/B1mRaT+EToEzosXlgY8xYjl8ndvBznvXkfw11M+Cfhv8QfFOgNGmr2t3aWVlfvEHeCGR33FQw4LBQM4rIX9oXxCNl02maE/iBIfJXxC+ng34AXaG3527tvG7bmuc8DfEvU/Ah1OOC2sdVsNTRUvNP1WDzrefacqzLkHcCSQQe9U5Xe+tt/mvn5eV2Qo2W3bT+v6dkd38UvEN54o+CHgHU9Q8tr6a/wBQ82WONY/NYMg3kKAMnAyQOSM9SauzePPEHjn9nPxS2vapNqTWeq2MUBmA/dqVfgYA9BXAeMPixqfjTR9I0u70/S7Sw0qaSa2t7G3MSKHK5Tbuxt+XsM8kkknNdHB+0JNbaNc6TF4D8GpptzIk01qLGfZI652sR5/UZNJtNSV97fhy/wCTGk1y6bX/ABv/AJom+FOoS+D/AIWeOPFmmJFH4gtZ7Oztb2SJZGtkkZt5QMCAxwBmsLxZ8TNd8UWPh3Wb7T/J1vT53MfiSOERtdFWDIrYUKzRkdeTzzVHw38VNR8LaprM9np2lPpurn/S9EuLYyWLgMWVQhbICk/Kd2R61W8b/EjUvHUWn21xbWOmaZp6sLTTdLt/Jt4dxy7BckkkgZJJpSldJp9vlb+vxHGOruu/z/r9D2Pxd8cvHen/AAf8Aatb+JLqLUdQm1Bbq4CpulEciBAflxwCenrXk/w6+I3iTwr4pEuk6tPYyandRC8aML+++fPOR/tN09am8M/F698P+G4NBu9B0LxHpttK81tHrVo0pt2fG/YVdSASASDmqHg34gL4OmuZh4Z0HWZJpVlRtUt5JDbkEkCPbIuBz3z0FaRmlVU29P8Ahrohxfs3C2uv5u33G/8AHaBbr4+eJ4X4STU9jY9DtBr1+TxpqMf7RC/DdYrX/hBvPXTf7D+yR+SYjCPm+7u3Z+bdnNeIfEP4tz/EczTXnhvQNO1CacXEuo6bbyx3EjAEYLNIwwc+nYVrj9orxHgXX9m6GfECwfZx4iNgP7Q27dmfM3bd23jdtzis6clTiovW2676f195VSLm211/D+v0N/4e6xceCfhX8UbvSzGtzZ6jYR28s0ayeWfNkUOAwI3AdCRweeorO+K2rT+NPhR4G8U6qI59fnuL2yuL1IlR7iONkKb9oAJGSM+9ef6b42v9L8I654djjgey1iWCW4lkVjKrRMWXad2Bkk5yD+FJqHjW+1LwZpHhmWK3Ww0yea4hkRWErNLjcGO7BHyjGAPxqXK8XFu+kfvVr/hcq3v8yXV/dZ2/Gx2vxT/5JX8KCn+q/s+8HHTd9pO78eledaNrF7o9xus7hrcyEK+3HIzXa+FfHmh3vgv/AIRDxjaXc2m28z3Om6jp5X7RZSMPnXa3DxscEjqDyO2OK0rVhpfmE2NpeFsEfakZtuM9MEf5FZYhKfNpzJ629f8AI3wzcJR97la6/wDDdzW8Vf8AI/XH/Xyn/stdJdaxdR3821lHl60tuh8tciNs7l6d8c1yOq+KpNWmE0lhYxXHmLIZoo2DsR2JLHiopfE11NNJIY4Qz3i3pwDjeM4HXpz9fevHeFnUhBSj8Kt+R9IsfSpVa06c378ubS6/m/JtG1Y28ljq2u3UM1rp9tDcND9qmjLtHlzgRqAecD06Uni0RXmhabefa49QnaaSJrtITGWAAIBBAzj1rHtvFFzb3F87Q29xFeSGSW3mj3Rlsk5AzkYye9M1PxFcapYxWjw28METl0WGPaFyAMYz04+vNaRw9X20Zvp6bWt2vv52Mp4yh9XnTi/ivprvzXT3tt5Xv5HZf2rcWfjy00eEIumwvGiQCMYHyA7s4znPOayvDawwR6/etcx2U8MiJHdSRGTy9ztkgAHk4AzVzQdWulbT7u+1HS1ghALuWQ3RQdEOBu/CuUstem066upIkjlhuCRJBOm5HGcjI9q5adCUlKnFK6UU7dbN33W7+fmdtbFQg4Vpt2cpNJ/ZTjZWs72i3pa22mpqeKr6yvtPtGF/HqOoo7CSdIGiLIQMbsgZIOfzrmK09Q1yTVvs8UscVtaQniG1j2quT8xAzyfqat7PDP8Az21b/v1F/wDFV6dL/Z6ai0+vn+SSPExH+2VXOMktt9L6ebbfq2WvDN3JY+GtfniC+Yn2cqWUMAd5GcH0o1q8l1PwzpupXDBr9bh4fPCgMygAjOOuDWdY6++jrfQWccc1rcsuftUe4lVJIBAOOc8/pUWra9Pq8cETRQ21vAD5cFum1AT1OMnk1j7CTre05et79bctrfedH1qEcKqPO9ItW6X527/JHWrbxXmt2niRlH2X7KbyYdvOjG0r/wB9bTWZ4I16/wD+EmghFywiu7gyTIMYdiCc1XbVPsfgaOxW4WSS7uWkaNWBMaLjgjtlgD+FYVjey6deQ3UDbJomDqcZ5FZQwzqUqkJa7xV+yvb8fyNq2NVKtRqQbT0nK3d2v96V/wDt5ov6x4g1DWH8m8unniSQlVYDjt6V299fWOk6wbGXV7eHTIdsb6abNmBXaM5YLyT1zmuE1bWv7WC/6DZ2jBixe1jKls+uSaup4zvF2Obeze8Rdq3rw5mGBgHOcZx3xTq4WVSMVGNkr6K27trs/vWo6GOhSqVJSnzNtWb5tle60afVaN2dtSTw3qVlpd7qA8/7K0i7La8MXmeV83XHXkd6n8QLqFyunXEs1prEbSlIriJcM7ZH7t+Af/19axdL1qfS3nIjhuY5xiWK4Ter85BPvmn6pr02qQwwGGC1toiWWG2Tau49SeSSa3VGUcSqqXz07dNLr8upyfWoSwkqLl3slda3vrrZr5X6XsfQH/CK/EHH/JCvCv8A4Ayf/JNeSfD/AMd+I/A3i0x6PfSaM15dxxXcNuBtIEn3Oc8DJFcPXV+B/Hq+CWmb/hG9D1yV3SRJNXt5JWhK5xs2yLj8c9BXrwmlUjLseBKLcHHudv8AEj/k6a9/7GGD/wBGJXrcnjvWE8TYE0OYfiG+ixsbaIlbOQ5khB29GIBJ6k968J8WfGy78XatBqs3hjw7Y6tHfR37X1lbSpNK6HIVy0rZUnGQMHgc1Tb4xa09+12bWw8xvEI8SEeW+PtI/g+//q/br/tU6MlTUYvp/nD9E/6YVIuTcl1/yl+rR6F4fuj4A0n4weIdCihtdY03VIrGzuPKVzaQvcSK2wEEDIULnHasv4reIL3xT8EPh/qeoiM3s99qBlmjiWPziGQbyFAGTjkgckZ65rD+GvjLxDdeNdcuLDUdB006yJZ7+315400+cF92wiXIJBY4Gc4zz1rovjJ4msr7w34K0LVNY07Vbyzubm41BvDflvb20LugSOHaFjyEU8DgHqec1Fv3ST7Jfc1f8m/6RX/L3mXdv8H/AMMeIV7P8J9fu/C/wV+Iup2AjF7BdaaYZJIlkEbGRxvCsCMjPBI4OD1FYX2f4P8A/P8AeN//AACs/wD47Wf4Z+KVz4Dtdf0nRbOz1DRdUuI2dNYtvMeSKNm2K6htvIb5uuD0IxmiL5bq+/8Amgkua2h1vxH8RX3ib4Y+A/Gl/IreJ1vrq2bUY41jkmWJkaMttABKk4BxXdrplldfEe1+LphX+xDobeIJU/g+3xjyTD9fO2t9a8K8dfErUvHsem29xaafpWm6ajJaabpcHk28W45dgpJJZiBkk9q67U/GQ0X9nLR/C8Oqw3d1q2pTXs9rDKrtaQIVCxuAcqXcb8H0qufSUl029bW/P3vkTy/DF9b39L3/AC935m1+zP8AEnxKPizpulLq0y6dq17PdXtvhds0piYlicZzlR37VwHij4leKPiReWNh4j1qfUrWK5/drIFGzcdpIwB2rnvCvia/8G+IrDW9LkWK/spRLEzLuGehBHcEEg/Wtbxp49XxkLYr4b0HQZIXZ2k0a1eFpScffy7DjHGMdTSUlaN9UunloVyu8n36/ff77n0x4j8UeGvCPj668P6p450uz8HWZFpP4ROgTOixeWBjzFiOXyd28HOe9eK/BvxjoXhC+8Uwtqv9gX15EsWleIGsjdfZAshLZTBYb1wNwGRVZf2hfEI2XTaZoT+IEh8lfEL6eDfgBdobfnbu28btua5nwX8RL/wUdRjjs9P1ex1BVW6sdWt/PhlKnKsRkEMCTggjrT5/evfo/wAfnf8A4fqTy+7a3b8Pw/zOx+N0fiG/0rw/q+ravo/iqwmM0Vr4g02PbLMQQWimyqnK54BHc81D8JuPht8Vmf8A1P8AZVuCT03G4Xb+PWuY8bfErUPG9np9hJY6bo+laeXa307SbfyYEZ8bnwSSWOByTWv4l8eaHp/gk+EfB9pdxWN3LHcapqWoFfPvJE+6gVeFjU5IHUnk4756e+11uvvVv83/AMEvX3V2s/ud/wCv8jzqiiioLCiiigAooooAKKKKACiiigAooooAKKKu6No954g1S306wh8+8uG2xx7gu44J6kgDgdzUykopyk7JDScmklqUqKc6mN2VhhlODTaoHdaMKKKKBBRRRQAUUV03gnwnYeKm1YX3iGx8PiyspLqI3p/4+XXpEnI+Y/ifQGmK5zNFFFIYUUUUAFFFdMvhOwPw/bxF/wAJDYjURe/Zf7Dz/pJTbnzev3c8dMe+eKfRsXkczRVrS9Lu9a1G2sLG3kury5kWKGGIZZ2JwABXR+MPhX4m8A2cV1rljDZxSy+Suy9gmbfgnBWN2YcA9QKLO3N0C6vbqclRRWh4f0G+8Ua3ZaTpsBuL+8lWGGMd2J/QdyewFCTk7IG0ldmfRXWfELwzofhG/h0vTNafXNQt96ajPHDstklBA2REnLgfMCxAB4xUK+E7A/D9vEX/AAkNiNRF79l/sPP+klNufN6/dzx0x754o6Nrp/wwdkczRRRSGFFdh4S+Evivxxpsmo6PpYnsEk8k3M91DbxlwMlQZXUMcHtmuWvrKbTb64tLhQlxbyNFIqsGAZSQQCCQeR1BxTacdxJp7EFFFd54p+HlhD4Th8V+GNTk1fQ/NW2vI7iIR3NhMRkLIoJBVucOOD060WdmwvrY4OiiikMKKKKACiiigAooooAKKKKACiiigAooooAKKKKACiiigAooooAKKKKACiiigAooooAKKKKACiiigAooooAKKKKACiiigAooooAKKKKANHX5PO1JpdiRmWKKRljGBuaNSePqTWdV7WpIZNQP2eXz4VjjjWTaV3bY1UnB6ciqNABRRRQAUUUUAd78OUsYfDfi+/vNNtdSezt4JIUuU3BWMuOvUDpkAjI4ql4i1zR/E+gWEiafaaX4gS5MUsenweVDJARlXIHAYHjiszQ/E/8AYug69pv2bzv7Viji83zNvlbH3Zxg5z06isMEqQQcGvNjhnKvOrK61VtenKlt63PRlieXDxpQts76een/AAD3688M6LpPiD+xLiHwjDoEYWGaS5vETURlRmQuW3BsnOOmK474N6yNK+IFlpEVrp93DLeOBey26vOoCkApJ1UHHb1NZ1z8SNN1G5/tO/8ACtpfa95YV7uadjBIwXaHaDGCcAd8Z7Vy/hvxDP4Z8RWWr26I81tL5ojYYVvUcdAQTXl0sDWlh6lOre7jbVqzlZ67v73b0PTrYyjGtTqUbJKV9N1HTTZfcr+poeJfFb+IZ0gfStJsRHOTvsLJIXfnGGI6iuxvNF09f2go9OWwthp/2yJfsghXysGJSRsxjGfauI8Tazouq+W+laFJo829nlZr1pw+ewBUbcH610q/Fi3+3x61J4dt5PFEcQQambh9hYLtEhhxgtj3xXTVpVeRexpte7JWutG7We9raPZt+RgqtKVSXtaifvRd7PZc11te+q6W03H+EIdPtbHx5e3Ol2l+bFY3t47iMFUbzyBjuB0yARkDFZHiLXtG8SeH7CddOtNM1+K5McsdhB5UMsGMhiBwGB4rO0fxU2l6L4hsHt/tD6vHGhmMm3yysm/OMHdn6isJW2sD1wc1008K/ayqTvdNW16cqT/G5zVsUvZKFNLW91bu7r7uh7fqEujf8Lbk8J/8IzpI0y5kSGSRbcLMrNEp3Iw+5gkcAevc5rxW+txaXtxADuEUjJn1wSK6u4+Inn/EpPFv9n7dsyS/Y/O/uoFxv298Z6Vyl7cfbLyefbs82Rn25zjJziowOHqULc6+zG+t/eV79TTHYinX5uT+eVtLe69uhFG/lyK2A205wwyD9RXungnxhB8QvD/ju11Dwn4VtfsXh25vLefT9FhgljlUqAwcDIxuPSvD7S1lvrqG2gQyzzOscaDqzE4A/M17d4U8Ba38I/CfjvU/F1oNETUNEl0uyguJU825mlZcBEBJIAUkmvbjfklfaz++2n42PDduaNt7r8znfgaPD7N4hGoDQm8QfZ4xo48S/wDHgX3/AL3fn5d23G3dxmpPi5oWpLdeHv7U8KaR4fluy0a6n4fdDZXy7gAVWMlAy55wQTnkdK5LwT4q0nw6t/b634ZtfElheIoKySmCeFlOQ0Uyglc55GCDxWj43+JVv4h0TRtD0PRF8OaJpcslxFB9qa5laZyNztIwHoMAAYq+aNo36W/PX+r/APAXLK7t1/y/r8z19/8AhG4/jYvwt/4QzQz4e80acbw25/tAsYs+d9ozu3bjnHTHGK4z4f2uleG/hv8AEbU7vRNO1280m+sorRtRgDhSZJFJPfBwCVBAOADkcUn/AA0DYHWl8Ut4KtG8ciLb/bP22TyfN2bPO+zY27sf7WM84rh9K8fPp3gXxR4dktDcSa5PbTteGbBiMTsx+Xb827d6jHvScrLe77/Nflr94lHy000++/6fcdT8UINN174c+DvGFto1hoeo3813Z3kGlxeTbyGJl2OI+inDHOOtal3rVr40+AviPUrjw7oGn6hp+pWdvDdaXpkVvJsYNuBZRk5wO9cFqHjtNS8AeHvDEmn4TSbu4uWuBP8A64Slcrt2/Ljb1yevSu2s/jF4GsfCmoeHYvhxdDTL6eO5nQ+InLF4wQpDeRkdTQ7NSSe9vv0b/X/hh6+7dbX/AFt+g79mHVNBt/iVoNpe6DNe6xLe5ttSW/MSW42HgxbCH6H+IdfauX8c+JvC0+phtC8JSaTfW98ZZZrvUjexzgMcqY2jUAE4J5PHHeqHg/xxaeCviVZeJ7DSW+xWd008OmtdEkIQQEMpXnAP3tvOOlcxfXP2y9uLjbs82RpNuc4yScZqXN2jbpf/ANtt+Xz6lKNnLzt+t/z/AMj6G/4QHQLj4vWvixdNt18CyaMfE72YhXyFVEw1vtxt/wBdgbcYwcVx37O919u+Mn24QxQSm1v7iKOBAiRuYJCAijgAZ4A6Vqaj4pvvDv7Lej6Pcson1zUJxaHHzrYo6s4z6NMPyzXmPw+8ZXHw/wDGOma/bRrO9nJuaFzgSxkFXQ/VSR+NW+VVORaKzXpzf5JpfJkK7p8z1f52/wA3f7zniSTk8mvabvWrXxp8BfEepXHh3QNP1DT9Ss7eG60vTIreTYwbcCyjJzgd64b4gWXhK31S11DwtqM17pl6zSyaZcxGKex5B8pm5DDk4Zc8Cuys/jF4GsfCmoeHYvhxdDTL6eO5nQ+InLF4wQpDeRkdTUR+CUW7f8Br9Lly+JNf1oyH4Wtpel/CXx3rt5oWna1e2FzYC1/tCASKhd3B99vQlQQDgZyOKPiEujax4H8DeND4fsdNuLy6ubXUbHSV+zQXCxOhBVRkRsVJBIHfPauXi+IFpY+E/F/h6w0dray1y6t54d12ZDaJE7MEOU/eZDY3fL06VV1bx1/anw70Hwt9i8r+yrq4uftfm583zdvy7NvGNvXJzntTlK6dvK3rpf8AX+rCUWpL53+52/Gx7F4i8UeBY/gn4PuJvA13NpkuoXogsRrrq0LgpuYyeVlt3HGBjHeuN+HsOi6V4K8ceNf7As9Snsbq3ttOsNUBuILdZnbJdePMIUAAke+K4/VvHX9qfDvQfC32Lyv7Kuri5+1+bnzfN2/Ls28Y29cnOe1WfAHxEi8I6frGkano8XiDw/qyx/arGSdoG3xklHSRQSrAk9jmnzJyk79Fb7lf8mvLoLlail5u/wB7t+j8+p0PxMttM8QfDfwp4yttHsdD1K9ubqxvLfTIvKt5DGVKOsecKcNg460fCf8Ae/DP4rQvzD/ZdvLtPTetwu0/Xk1z/j74iw+LNM0jRtK0aPw/4f0rzGtrFJ2ncySEF3eRgCxOB2GK29b8SeHfBfw9vPCnhm/k1vUNZeKXV9VMJhiVIzuS3iVuThuSx6449pdvfa2at96tf77v8Ow1f3E907/c7/lZf1c8vooorM0CiiigAooooAKKKKACiiigAooooAKKKKACiiigAooooAKKKKACiiigAooooAKKKKACiiigAooooAKKKKACiiigAooooAKKKKACiiigAooooAKKKKACiiigAooooAKKKKACiiigAooooAKKKKACiiigAooooAKKKKACiiigAooooAKKKKACiiigAooooAKKKKACiiigAooooAKKKKACiiigAooooAKKKKACiiigAooooAKKKKACiiigAooooAKKKKACiiigAooooAKKKKACiiigAooooAKKKKACiiigAooooAKKKKAP/9k=;" vertex="1" parent="1">
          <mxGeometry x="240" y="640" width="520" height="199" as="geometry" />
        </mxCell>
      </root>
    </mxGraphModel>
  </diagram>
</mxfile>
